<svg xmlns="http://www.w3.org/2000/svg" viewBox="0 0 100 100" height="100" width="100"><path d="M40.462 97.512c-38.504-8.02-52.508-54.917-24.585-82.334C31.355-.021 57.223-3.148 75.057 8.023c3.322 2.08 1.295 2.027-2.875-.076C25.967-15.36-19.434 40.54 13.523 80.169 41.59 113.917 97.938 93.73 97.938 49.928c0-5.186.976-5.257 1.16-.085 1.054 29.546-28.866 53.87-58.636 47.669zM47.932 96C11.558 94.094-8.716 53.603 11.74 23.722 25.338 3.86 53.786-2.234 74.235 10.336c2.87 1.764.74 1.803-2.499.045-38.855-21.086-82.356 21.57-61.671 60.473 21.852 41.1 85.36 25.37 85.381-21.147.001-2.924.119-3.599.624-3.599 1.426 0 .385 12.275-1.515 17.878C88.671 81.34 72.348 94.491 55.194 95.7c-1.712.12-3.58.262-4.15.314-.57.053-1.971.047-3.113-.013zm-2.181-2.615C-7.82 88.195-5.743 8.703 48.026 6.335c9.509-.42 25.842 4.053 25.842 7.076 0 .832-.257.783-2.384-.453C36.567-7.324-4.866 29.004 10.652 66.296c17.554 42.186 82.306 29.504 82.306-16.12 0-3.471.098-4.068.67-4.068 1.098 0 .584 9.725-.785 14.857-5.548 20.81-25.459 34.518-47.092 32.421zm-.556-2.435C-6.967 84.507-.928 7.034 51.6 8.783c7.578.252 21.023 4.333 21.023 6.381 0 .882-.67.724-4.07-.956-34.698-17.143-71.736 18.943-54.7 53.296 18.665 37.64 76.615 24.541 76.615-17.319 0-3.35.111-4.077.622-4.077.774 0 .877 6.43.171 10.661-3.584 21.489-24.313 36.87-46.066 34.182zm-.583-2.517C23.807 85.491 8.705 66.112 11.159 45.511 14.403 18.296 44.033 2.762 68.448 15.48c4.806 2.503 3.32 2.99-1.77.579C28.349-2.09-6.37 45.972 23.193 76.255c20.2 20.692 58.63 10.397 63.758-17.08l.287-1.535-10.49-.11c-7.941-.083-10.53-.235-10.66-.624-.136-.403 2.167-.514 10.606-.514 9.146 0 10.816-.093 11.017-.61.204-.529-1.223-.626-10.608-.72-8.226-.084-10.885-.234-11.016-.624-.135-.403 2.218-.514 10.86-.514 9.474 0 11.031-.087 11.031-.61 0-.522-1.59-.627-10.893-.72-16.034-.162-16.277-1.29-.312-1.449 14.171-.14 14.527-.668.623-.923-16.418-.302-16.635-1.385-.311-1.55 6.66-.067 10.893-.264 10.893-.507s-4.234-.44-10.893-.507c-16.6-.168-16.151-1.294.578-1.453l11.472-.11.19 1.755c2.486 23-20.64 43.99-44.713 40.584zm-10.583-36.36c0-24.04.076-27.354.623-27.354s.622 3.313.622 27.354c0 24.04-.075 27.353-.622 27.353s-.623-3.313-.623-27.353zm2.49.03c0-25.806.042-27.384.726-27.384 1.128 0 1.128 54.414 0 54.629-.685.13-.726-1.387-.726-27.245zm2.772 27.032c-.79-1.268-.256-54.416.548-54.416.835 0 .839.136.73 27.217-.104 26.274-.226 28.885-1.278 27.199zm2.623-27.062c0-24.04.075-27.354.623-27.354.547 0 .622 3.313.622 27.354 0 24.04-.075 27.353-.622 27.353-.548 0-.623-3.313-.623-27.353zm2.49.007V24.719h10.928c9.437 0 10.928.084 10.928.617 0 .532-1.422.617-10.305.617-8.884 0-10.306.085-10.306.617s1.422.617 10.306.617c8.883 0 10.305.085 10.305.617s-1.422.617-10.305.617c-8.83 0-10.306.087-10.306.61 0 .52 1.518.626 10.237.72 7.74.083 10.278.235 10.409.624.135.402-2.094.514-10.237.514-8.976 0-10.409.085-10.409.617s1.401.617 10.123.617c8.615 0 10.158.092 10.362.617.208.538-1.083.617-10.123.617-8.934 0-10.362.085-10.362.617s1.406.617 10.167.617 10.168.085 10.168.617-1.407.617-10.168.617H45.65v10.283h7.677c6.548 0 7.678.091 7.678.617 0 .527-1.13.617-7.678.617-6.495 0-7.677.094-7.677.608 0 .51 1.22.626 7.574.72 6.405.095 7.573.207 7.573.73 0 .52-1.168.633-7.573.728-6.353.094-7.574.21-7.574.72 0 .514 1.182.608 7.677.608 6.548 0 7.678.09 7.678.617 0 .526-1.13.617-7.678.617-6.547 0-7.677.09-7.677.617 0 .526 1.13.617 7.677.617 6.548 0 7.678.09 7.678.617 0 .526-1.13.617-7.678.617-6.547 0-7.677.09-7.677.617 0 .526 1.13.617 7.677.617 6.548 0 7.678.09 7.678.617 0 .526-1.13.617-7.678.617H45.65v10.269l10.237.11c7.74.083 10.278.235 10.409.624.135.402-2.094.514-10.237.514-8.921 0-10.409.087-10.409.61 0 .52 1.51.626 10.168.72 13.72.148 13.72.894 0 1.042-8.658.094-10.168.201-10.168.72 0 .522 1.452.61 10.098.61 10.267 0 10.765.051 10.371 1.069-.183.473-2.05.576-10.38.576-7.942 0-10.12.113-9.985.515.13.388 2.627.54 10.201.624 8.535.094 10.03.201 10.03.72 0 .522-1.461.61-10.168.61-8.707 0-10.167.087-10.167.61 0 .519 1.51.625 10.168.72 14.142.152 13.77.898-.52 1.041l-10.893.11V52.08z" fill="#00ffe2"/></svg>