<svg xmlns="http://www.w3.org/2000/svg" width="350" height="92" viewBox="0 0 350 92"><path fill="#E53238" d="M171.268 30.443a20.025 20.025 0 0 1 11.969-3.946c10.355 0 18.745 7.393 18.745 16.522 0 .326.019.8 0 1.126h-21.568l-9.146-13.702zm7.577 7.788h9.384c-.021-2.066-2.112-3.744-4.692-3.744-2.578 0-4.671 1.677-4.692 3.744m-64.483 18.707l-.011 2.263h-13.559l.004-35.328 14.137 20.832c1.099 1.931 3.084 3.331 5.634 3.331 3.366 0 6.087-2.385 6.087-5.335s-2.722-5.344-6.087-5.344c-1.975 0-3.716.832-4.823 2.118l-.114.095a541.165 541.165 0 0 1-14.834-22.31l-.004-3.731h13.559v14.713c2.363-1.217 4.795-1.569 7.465-1.558 9.462.034 17.859 6.649 17.899 16.073 0 0 .653 8.824-8.509 13.961-8.801 4.942-16.844.22-16.844.22m161.445 0l-.009 2.263h-13.559l.002-35.328 14.137 20.832c1.101 1.931 3.091 3.331 5.641 3.331 3.359 0 6.081-2.385 6.081-5.335s-2.722-5.344-6.081-5.344c-1.983 0-3.718.832-4.825 2.118l-.122.095a541.064 541.064 0 0 1-14.83-22.31l-.002-3.731h13.559v14.713c2.361-1.217 4.795-1.569 7.461-1.558 9.466.034 17.861 6.649 17.902 16.073 0 0 .653 8.824-8.504 13.961-8.802 4.942-16.851.22-16.851.22m-70.953-22.969v25.217h12.647v-6.502zM12.119 10.713l.024.202 20.879 31.037c1.797 2.615 5.04 4.362 8.74 4.362 5.66 0 10.243-4.076 10.243-9.098 0-5.022-4.583-9.1-10.243-9.1-3.471 0-6.613 1.573-8.468 3.916L17.17 7.041l-.075-.105C24.037 2.426 32.618-.155 42.254.007c22.811.379 41.567 17.29 41.485 37.24-.087 20.45-18.548 36.913-41.743 36.913C18.803 74.16 0 57.579 0 37.132c0-10.243 4.548-19.639 12.119-26.419m18.692.265l5.667 8.529c12.166-2.432 25.633 4.333 25.753 18.147-.571 12.684-12.959 19.603-24.837 17.226 0 0-9.163-1.444-13.705-9.426L11.784 28.43C3.662 51.098 25.376 65.146 42.253 65.146c17.193 0 31.111-12.321 31.111-27.493.582-16.489-18.691-34.37-42.553-26.675m284.783 34.37c.964 1.899 3.127 3.221 5.647 3.221 3.415 0 6.182-2.426 6.182-5.424 0-2.994-2.767-5.424-6.182-5.424-2.114 0-3.969.929-5.083 2.354l-6.506-9.955c3.2-2.2 7.21-3.512 11.589-3.512 10.408 0 18.84 7.401 18.84 16.537 0 9.129-8.431 16.536-18.84 16.536-10.404 0-18.842-7.407-18.842-16.536 0-4.146 1.734-7.933 4.608-10.833l8.587 13.036zm-89.783-18.332c6.392.019 9.717 4.461 9.717 4.461s3.939-5.095 10.707-4.716c11.733.663 11.769 10.713 11.769 10.713v21.712h-12.679v-18.61c-.047-2.042-1.734-3.699-3.81-3.699-2.084 0-3.769 1.657-3.769 3.737v18.572h-12.669v-18.61c-.043-2.042-1.728-3.699-3.808-3.699s-3.769 1.657-3.769 3.737l.011 5.798-12.656-19.025H217.5l.017 2.093s3.969-2.474 8.294-2.464"/><path fill="#E53238" d="M179.214 48.645c1.578 2.272 4.059 2.093 4.059 2.093 2.58 0 4.606-2.126 4.692-3.739h13.392c-1.977 7.26-9.283 12.545-18.121 12.545-10.355 0-18.75-7.401-18.75-16.526 0-3.811 1.447-7.235 4.128-10.226l10.6 15.853zm-36.178-14.78l12.81 18.431v6.931h-13.579v-25.03s-.013-.438.281-.533c.299-.1.488.201.488.201m21.453-6.342v10.182h-3.748s-2.419-.265-3.655.758c-1.193.994-1.14 1.965-1.254 3.125l.006 4.169-11.026-15.727s1.629-2.129 5.574-2.506h14.103zM345.344 51.18c-2.571 0-4.645 1.838-4.645 4.123 0 2.282 2.073 4.125 4.645 4.125 2.58 0 4.656-1.844 4.656-4.125 0-2.285-2.076-4.123-4.656-4.123m.017.362c2.389 0 4.162 1.64 4.162 3.748 0 2.085-1.788 3.773-4.162 3.773-2.376 0-4.19-1.674-4.19-3.76.001-2.125 1.793-3.761 4.19-3.761m-1.227 1.683h1.511c.659 0 1.395.225 1.395.971 0 .851-.91.93-1.743.93h-1.163v-1.901zm-.479 4.514h.479v-2.245h1.425l1.657 2.245h.519l-1.644-2.242c.786-.107 1.423-.493 1.423-1.286 0-.882-.552-1.348-1.79-1.348h-2.069v4.876z"/><path d="M110.836 80.939c0 1.776-.41 3.203-1.229 4.28-.818 1.078-1.918 1.617-3.298 1.617-1.473 0-2.611-.52-3.416-1.558l-.098 1.343h-1.832v-16.5h1.994v6.155c.805-.995 1.915-1.493 3.33-1.493 1.416 0 2.527.533 3.336 1.601s1.213 2.528 1.213 4.383v.172zm-1.994-.225c0-1.354-.263-2.399-.787-3.137s-1.279-1.106-2.264-1.106c-1.314 0-2.26.608-2.834 1.826v5.027c.61 1.218 1.563 1.826 2.856 1.826.955 0 1.699-.369 2.23-1.106.534-.737.799-1.848.799-3.33zm8.202 2.997l2.716-8.712h2.134l-4.688 13.417c-.727 1.934-1.88 2.9-3.46 2.9l-.377-.032-.744-.14v-1.611l.539.043c.675 0 1.201-.136 1.579-.408.377-.272.688-.77.932-1.493l.442-1.182-4.16-11.494h2.177l2.91 8.712zm21.071-1.182h-6.575l-1.477 4.093h-2.134l5.992-15.641h1.811l6.004 15.641h-2.123l-1.498-4.093zm-5.95-1.686h5.335l-2.673-7.315-2.662 7.315zm22.548-9.862v10.635c-.008 1.476-.473 2.682-1.396 3.62-.923.938-2.175 1.465-3.756 1.579l-.55.021c-1.717 0-3.086-.462-4.106-1.386-1.02-.924-1.537-2.195-1.552-3.813V70.981h2.048v10.592c0 1.132.313 2.011.938 2.637.625.627 1.517.94 2.673.94 1.171 0 2.067-.312 2.689-.935.621-.623.933-1.5.933-2.632V70.981h2.079zm14.108 1.687h-5.044v13.954h-2.059V72.668h-5.033v-1.687h12.136v1.687zm14.097 6.639c0 1.532-.259 2.87-.776 4.013-.517 1.142-1.25 2.014-2.198 2.615s-2.055.902-3.319.902c-1.236 0-2.332-.303-3.287-.908-.956-.604-1.698-1.468-2.226-2.588-.528-1.121-.8-2.419-.814-3.895v-1.128c0-1.504.263-2.832.787-3.985s1.267-2.035 2.226-2.648c.959-.611 2.057-.918 3.292-.918 1.257 0 2.365.303 3.324.908.96.604 1.698 1.482 2.215 2.631.518 1.15.776 2.487.776 4.013v.988zm-2.059-1.01c0-1.854-.374-3.278-1.121-4.271-.747-.991-1.793-1.487-3.136-1.487-1.308 0-2.337.496-3.087 1.487-.751.992-1.138 2.369-1.159 4.131v1.149c0 1.798.379 3.21 1.138 4.237.758 1.028 1.801 1.542 3.13 1.542 1.336 0 2.371-.485 3.104-1.456.733-.97 1.11-2.361 1.132-4.173v-1.159zm10.918 1.998h-3.687v6.327h-2.08V70.981h5.195c1.768 0 3.127.401 4.079 1.203s1.428 1.97 1.428 3.502c0 .974-.264 1.822-.792 2.546s-1.263 1.264-2.204 1.622l3.687 6.639v.129h-2.221l-3.405-6.327zm-3.686-1.687h3.18c1.027 0 1.845-.266 2.452-.796.606-.531.91-1.241.91-2.132 0-.968-.289-1.71-.867-2.227s-1.414-.779-2.506-.786h-3.169v5.941zm28.572 5.962c-.531.759-1.273 1.327-2.226 1.702-.952.377-2.06.564-3.324.564-1.279 0-2.415-.299-3.406-.896-.991-.599-1.759-1.449-2.301-2.552-.543-1.103-.821-2.381-.836-3.835v-1.364c0-2.356.552-4.183 1.655-5.479 1.103-1.296 2.652-1.944 4.65-1.944 1.638 0 2.956.417 3.955 1.252.999.834 1.609 2.018 1.832 3.55h-2.069c-.388-2.077-1.623-3.115-3.707-3.115-1.387 0-2.438.485-3.152 1.457-.716.971-1.076 2.378-1.083 4.22v1.279c0 1.756.401 3.152 1.207 4.188.805 1.036 1.893 1.554 3.266 1.554.775 0 1.455-.086 2.037-.257a3.15 3.15 0 0 0 1.443-.868v-3.505h-3.632v-1.687h5.69v5.736zm9.205-4.275h-3.687v6.327h-2.08V70.981h5.195c1.768 0 3.127.401 4.079 1.203s1.428 1.97 1.428 3.502c0 .974-.264 1.822-.792 2.546s-1.263 1.264-2.204 1.622l3.687 6.639v.129h-2.221l-3.405-6.327zm-3.686-1.687h3.18c1.027 0 1.845-.266 2.452-.796.606-.531.91-1.241.91-2.132 0-.968-.289-1.71-.867-2.227s-1.414-.779-2.506-.786h-3.169v5.941zm23.592.699c0 1.532-.259 2.87-.776 4.013-.517 1.142-1.25 2.014-2.198 2.615s-2.055.902-3.319.902c-1.236 0-2.332-.303-3.287-.908-.956-.604-1.698-1.468-2.226-2.588-.528-1.121-.8-2.419-.814-3.895v-1.128c0-1.504.263-2.832.787-3.985s1.267-2.035 2.226-2.648c.959-.611 2.057-.918 3.293-.918 1.257 0 2.365.303 3.324.908.96.604 1.698 1.482 2.215 2.631.518 1.15.776 2.487.776 4.013v.988zm-2.058-1.01c0-1.854-.374-3.278-1.121-4.271-.747-.991-1.793-1.487-3.136-1.487-1.309 0-2.338.496-3.088 1.487-.751.992-1.138 2.369-1.159 4.131v1.149c0 1.798.379 3.21 1.138 4.237.758 1.028 1.801 1.542 3.131 1.542 1.336 0 2.371-.485 3.104-1.456.733-.97 1.11-2.361 1.132-4.173v-1.159zm16.21-7.316v10.635c-.008 1.476-.473 2.682-1.396 3.62-.923.938-2.175 1.465-3.756 1.579l-.55.021c-1.717 0-3.086-.462-4.106-1.386-1.02-.924-1.537-2.195-1.552-3.813V70.981h2.048v10.592c0 1.132.313 2.011.938 2.637.625.627 1.517.94 2.673.94 1.171 0 2.067-.312 2.689-.935.621-.623.933-1.5.933-2.632V70.981h2.079zm5.335 9.518v6.123h-2.069V70.981h5.788c1.717 0 3.063.437 4.036 1.311s1.46 2.03 1.46 3.47c0 1.519-.476 2.688-1.428 3.507-.952.82-2.315 1.23-4.09 1.23h-3.697zm0-1.686h3.719c1.106 0 1.954-.26 2.543-.78.59-.52.884-1.271.884-2.254 0-.933-.294-1.679-.884-2.238-.589-.56-1.397-.851-2.425-.872h-3.837v6.144z" fill="#F6F6F6"/></svg>