<svg xmlns="http://www.w3.org/2000/svg" width="500" height="61.8" version="1"><g fill-rule="evenodd"><path d="M61.177 7.078c-3.77.097-7.433.786-10.887 2.26l4.5 7.472c1.99-.786 4.294-1.278 6.387-1.278.733 0 1.36.098 2.094.195 8.583.591 15.493 8.948 14.865 16.91-.733 8.748-8.166 14.254-16.959 14.648h-1.676c-5.757-1.18-10.571-3.44-13.398-8.554l-9.422-15.335c-1.256 3.54-1.674 6.882-1.36 10.52 1.466 11.6 10.886 20.446 23.24 21.823.836.098 1.78.098 2.616.098 14.342-.197 25.856-10.912 26.066-24.281-.21-13.272-10.992-23.495-24.706-24.478h-1.36zm0 55.836c-18.423 0-33.603-14.155-33.603-31.358 0-8.455 3.558-16.123 9.42-21.824l16.019 25.952c.731 1.178 1.778 2.26 3.034 3.146 1.467.786 3.14 1.375 4.92 1.375h.21c6.49.197 10.99-6.389 8.793-11.795-1.256-3.44-4.92-5.701-8.793-5.701-.523 0-1.047 0-1.57.098-2.827.294-5.653 2.555-6.91 4.914L40.031 7.078C45.788 2.654 53.221 0 61.177 0 79.707 0 94.78 14.155 94.78 31.556c0 17.203-15.074 31.358-33.603 31.358" fill="red"/><path d="M192.177 36.954l-8.457-11.996a12.326 12.326 0 0 0-.517 3.615V61.67h15.185V46.06l-6.211-9.106zm89.914-2.457l8.111 11.707v15.32h-.174v.146h-17.086V21.348l9.149 13.15zm0-6.357l8.111 11.561v-7.515c0-5.49 11.046-5.924 11.046 0v29.338h10.182v.146h8.8V32.186c0-5.49 11.048-5.924 11.048 0V61.67h17.085V31.463c0-16.331-24.508-19.365-33.482-9.106-5.522-6.357-16.913-7.658-24.853-3.9v-2.024H273.98l8.111 11.707zm95.266 14.162l-18.64-27.024v46.246h15.188v-1.878c3.452 1.445 7.42 2.31 11.734 2.31 14.671 0 26.751-10.115 26.751-22.544 0-12.284-12.08-22.4-26.75-22.4-4.315 0-8.283.867-11.735 2.312V.68h-15.188v8.091l18.986 27.316c1.38-2.313 4.485-4.045 7.936-4.045 4.835 0 8.803 3.323 8.803 7.369 0 4.045-3.968 7.371-8.803 7.371-3.797 0-6.902-1.734-8.282-4.481zm60.746.433l-12.422-17.92c-4.143 3.902-6.56 8.96-6.56 14.597 0 12.43 12.083 22.545 26.922 22.545 14.671 0 26.75-10.116 26.75-22.545 0-12.284-12.079-22.4-26.75-22.4-6.731 0-12.77 2.022-17.602 5.491l9.662 13.729c1.383-2.457 4.489-4.19 7.94-4.19 4.835 0 8.803 3.324 8.803 7.37 0 4.045-3.968 7.371-8.803 7.371-3.451 0-6.557-1.59-7.94-4.048zm-195.708 7.228c2.763-.869 4.66-3.036 5.18-5.494h17.602c-2.588 9.107-11.562 16.043-22.782 17.344-1.034 0-2.243.144-3.451.144-14.668 0-26.748-10.116-26.748-22.545 0-4.915 1.897-9.25 5.006-13.006l13.805 19.798c1.38 2.6 4.314 4.335 7.937 4.335 1.208 0 2.417-.143 3.45-.576zm0-14.454h5.351c-.345-2.744-2.417-4.914-5.351-5.924-1.034-.435-2.243-.579-3.451-.579-4.657 0-8.283 2.747-8.629 6.503h12.08zm0-18.353c-1.034 0-2.243-.144-3.451-.144-7.246 0-14.151 2.601-18.983 6.79l12.771 18.5V41.29h32.962c0-.723.175-1.3.175-1.878 0-11.272-10.357-20.811-23.474-22.256zm-50.218 13.439l-6.386-9.104c1.726-1.734 3.968-2.89 6.386-3.469 1.38-.433 2.93-.577 4.314-.577h12.254v11.85h-3.455c-3.968 0-6.902 2.312-6.902 5.781v4.482l-6.211-8.963zm-52.81 11.707l-18.814-27.024v46.246h15.188v-1.878c3.626 1.445 7.594 2.31 11.734 2.31 14.671 0 26.925-10.115 26.925-22.544 0-12.284-12.254-22.4-26.925-22.4-4.14 0-8.108.867-11.734 2.312V.68h-15.188v8.091l18.985 27.316c1.38-2.313 4.486-4.045 7.937-4.045 4.834 0 8.803 3.323 8.803 7.369 0 4.045-3.969 7.371-8.803 7.371-3.623 0-6.728-1.734-8.108-4.481"/></g></svg>