<?xml version="1.0" encoding="UTF-8" standalone="no"?>
<svg
   xmlns:dc="http://purl.org/dc/elements/1.1/"
   xmlns:cc="http://creativecommons.org/ns#"
   xmlns:rdf="http://www.w3.org/1999/02/22-rdf-syntax-ns#"
   xmlns:svg="http://www.w3.org/2000/svg"
   xmlns="http://www.w3.org/2000/svg"
   id="svg3704"
   version="1.1"
   width="400"
   height="400"
   viewBox="0 0 400 400">

  <defs
     id="defs3708" />
  <g
     id="g3714"
     transform="translate(-39.377991,0.22259242)">
    <path
       style="fill:rgb(212, 47, 47)"
       d="M 62.654988,349.17126 C 61.144965,347.5027 61,340.55263 61,269.82625 61,181.52401 61.810004,189 52.242688,189 c -8.061908,0 -8.245255,-0.43058 -8.227375,-19.32143 0.0084,-8.89821 0.441151,-16.85357 0.961621,-17.67857 0.739268,-1.17182 3.689556,-1.57254 13.484687,-1.83156 L 71,149.83689 71,138.41844 C 71,122.9523 70.950845,123 86.889216,123 c 16.148144,0 16.006764,-0.12971 16.349944,15 l 0.26084,11.5 17,0 17,0 0.2999,-5.75 0.29991,-5.75 19.90019,0 19.90019,0 0.29991,5.75 0.2999,5.75 23.25,0.26843 23.25,0.26843 0,-6.01843 0,-6.01843 19.9501,0 19.95009,0 0.29991,5.75 0.2999,5.75 16.36701,0.27533 c 11.22105,0.18877 16.80184,-0.0855 17.75,-0.87244 1.02857,-0.85364 1.38299,-4.05451 1.38299,-12.49015 0,-10.19042 0.19645,-11.44751 1.93426,-12.37756 C 303.9981,123.46583 309.79825,123 315.82347,123 c 15.08016,0 15.07535,-0.005 15.41569,15 l 0.26084,11.5 12.17413,0.5 c 11.15011,0.45794 12.3908,0.70392 14.75,2.92431 2.53587,2.38667 2.57587,2.64748 2.57587,16.79546 0,13.92491 -0.0762,14.44735 -2.45455,16.82568 C 356.6086,188.48231 355.05946,189 351.20044,189 342.3163,189 343,182.23223 343,270.17375 c 0,73.82652 -0.087,77.59505 -1.82874,79.17126 C 339.48826,350.86811 328.38327,351 201.82625,351 69.87271,351 64.243028,350.92602 62.654988,349.17126 Z M 185.02842,313.25 c 1.77958,-2.0625 5.09095,-5.775 7.35861,-8.25 2.26765,-2.475 8.39575,-9.20052 13.61799,-14.94559 5.22224,-5.74508 11.40497,-12.49508 13.73939,-15 C 225.96035,268.38448 224.97372,264 217.25687,264 c -1.58104,0 -3.69746,-0.60168 -4.70316,-1.33707 -1.90649,-1.39406 -1.27989,-2.31134 17.74672,-25.97913 C 235.809,229.83151 241,222.65456 241,221.89082 c 0,-0.41138 -0.70714,-1.45511 -1.57143,-2.31939 C 238.07399,218.21685 233.94947,218 209.53936,218 c -25.54982,0 -28.51096,0.17106 -30.294,1.75 -1.75243,1.55185 -3.42949,6.58604 -10.32714,31 -0.50502,1.7875 -1.33111,4.7125 -1.83575,6.5 -0.50464,1.7875 -1.86521,6.4 -3.02348,10.25 -3.21651,10.6914 -2.10773,12.43697 7.94101,12.50166 2.475,0.0159 5.12869,0.42704 5.89708,0.91357 1.59429,1.00947 1.38671,2.49491 -3.01627,21.58477 -2.92719,12.69133 -2.55495,14.5 2.98421,14.5 3.2969,0 4.44751,-0.60234 7.1634,-3.75 z M 366.66667,240.33333 C 366.3,239.96667 366,233.0549 366,224.97385 l 0,-14.69281 5.2189,-3.89298 c 3.66874,-2.73665 6.11923,-5.65191 8.25,-9.81475 3.00808,-5.8768 3.03357,-6.06347 3.35685,-24.58308 0.41479,-23.76285 -0.58879,-28.07663 -8.28458,-35.61021 C 369.70694,131.64767 360.76829,127 356.50103,127 c -0.82921,0 -1.90149,-1.77509 -2.56731,-4.25 -2.43711,-9.05893 -7.85618,-15.8734 -15.42644,-19.39869 -4.44722,-2.07097 -6.48927,-2.33286 -18.25728,-2.34154 -7.70112,-0.006 -13.25,-0.40788 -13.25,-0.96041 0,-2.792872 32.02823,-50.116153 38.84042,-57.388636 4.06602,-4.340752 8.02724,-5.980835 14.30704,-5.923626 7.60817,0.06931 11.35693,2.756946 20.17235,14.462363 7.91469,10.509385 26.12348,37.506928 32.91407,48.800539 15.70301,26.11607 25.76661,51.50347 25.76595,64.99963 -2.2e-4,4.55776 -2.44846,17.27748 -4.53408,23.55671 -6.60297,19.87962 -24.2866,38.74404 -43.96575,46.90147 -9.24467,3.83211 -22.22201,6.48685 -23.83333,4.87552 z"
       id="path3716" />
  </g>
</svg>
