<?xml version="1.0" encoding="UTF-8" standalone="no"?>
<svg
   xmlns:dc="http://purl.org/dc/elements/1.1/"
   xmlns:cc="http://creativecommons.org/ns#"
   xmlns:rdf="http://www.w3.org/1999/02/22-rdf-syntax-ns#"
   xmlns:svg="http://www.w3.org/2000/svg"
   xmlns="http://www.w3.org/2000/svg"
   xmlns:sodipodi="http://sodipodi.sourceforge.net/DTD/sodipodi-0.dtd"
   xmlns:inkscape="http://www.inkscape.org/namespaces/inkscape"
   viewBox="0 0 400 400"
   height="400"
   width="400"
   version="1.1"
   id="svg3466"
   inkscape:version="0.91 r13725"
   sodipodi:docname="akp.svg">
  
  <metadata
     id="metadata3472">
  </metadata>
  <defs
     id="defs3470" />
  <g
     transform="translate(-9.3559934,-0.30377609)"
     id="g3524">
    <path
       id="path3526"
       d="M 65.5,351.67548 C 53.93491,348.72083 43.22192,340.24078 38.271348,330.12218 28.40692,309.96001 35.602436,287.14258 55.337325,276.0049 L 61,272.80908 61,201 61,129.19092 55.337325,125.9951 C 35.602436,114.85742 28.40692,92.039986 38.271348,71.87782 43.523492,61.142825 55.013388,52.525501 67.459773,49.986751 84.732614,46.463525 103.25831,56.174967 111.36019,73 c 4.29414,8.917562 4.94516,21.128213 1.61737,30.33581 -3.82285,10.57738 -10.82582,18.53441 -20.72756,23.55144 l -4.25,2.1534 0,29.47967 0,29.47968 56,0 56,0 0,-29.49488 0,-29.49487 -4.62584,-2.17441 c -6.65206,-3.12683 -15.66859,-11.87342 -18.76588,-18.20405 -7.8569,-16.058936 -4.70449,-34.66601 8.03071,-47.401219 9.07539,-9.075384 23.13209,-13.71074 34.47384,-11.36814 9.43241,1.948233 16.37648,5.49644 22.24818,11.36814 12.41577,12.415774 15.76851,30.619166 8.55568,46.452309 -2.75002,6.03666 -12.9902,16.25255 -19.16669,19.12123 l -4.75,2.20614 0,29.55031 0,29.55031 45.75,-0.30544 45.75,-0.30543 5,-2.65675 c 5.6575,-3.00612 9.25661,-6.52377 12.6291,-12.34325 2.16817,-3.74134 2.34173,-5.27313 2.684,-23.68779 l 0.36593,-19.6878 -5.25589,-2.66336 C 326.47872,123.19542 318.24581,115.04045 315.2952,109 311.71431,101.66922 310.75997,96.813849 311.15058,87.913415 311.45323,81.016966 312.08325,78.328029 314.6448,73 c 8.08629,-16.819479 26.62106,-26.536786 43.89543,-23.013249 12.76756,2.604263 24.08993,11.265132 29.4316,22.513249 9.48392,19.970566 2.19889,42.48544 -17.30915,53.4951 L 365,129.19092 l 0,16.85532 c 0,23.7999 -1.73044,31.33714 -10.09145,43.95509 -6.30975,9.52231 -15.10916,16.42697 -27.11863,21.27925 -5.10304,2.06183 -6.99444,2.14949 -53.53992,2.48138 l -48.25,0.34405 0,29.44187 0,29.44187 4.62584,2.17441 c 6.65206,3.12683 15.66859,11.87342 18.76588,18.20405 7.8569,16.05894 4.70449,34.66601 -8.03071,47.40122 -9.07539,9.07538 -23.13209,13.71074 -34.47384,11.36814 -9.43241,-1.94823 -16.37648,-5.49644 -22.24818,-11.36814 -12.41577,-12.41578 -15.76851,-30.61917 -8.55568,-46.45231 2.75002,-6.03666 12.9902,-16.25255 19.16669,-19.12123 l 4.75,-2.20614 0,-29.49487 0,-29.49488 -56,0 -56,0 0,29.48315 0,29.48316 5.166369,2.618 c 6.364636,3.2252 14.602621,11.40554 17.538431,17.41569 3.58089,7.33078 4.53523,12.18615 4.14462,21.08658 -0.58689,13.37317 -6.58381,23.81908 -18.30255,31.88085 -8.342032,5.7388 -21.475323,8.15339 -31.04687,5.70805 z"
       style="fill:rgb(212, 47, 47)"
       inkscape:connector-curvature="0" />
  </g>
</svg>
