<?xml version="1.0" encoding="UTF-8" standalone="no"?>
<svg
   xmlns:dc="http://purl.org/dc/elements/1.1/"
   xmlns:cc="http://creativecommons.org/ns#"
   xmlns:rdf="http://www.w3.org/1999/02/22-rdf-syntax-ns#"
   xmlns:svg="http://www.w3.org/2000/svg"
   xmlns="http://www.w3.org/2000/svg"
   xmlns:sodipodi="http://sodipodi.sourceforge.net/DTD/sodipodi-0.dtd"
   xmlns:inkscape="http://www.inkscape.org/namespaces/inkscape"
   viewBox="0 0 400 400"
   height="400"
   width="400"
   version="1.1"
   id="svg3336"
   inkscape:version="0.91 r13725"
   sodipodi:docname="br.svg">

  <defs
     id="defs3340" />
  <g
     transform="translate(1.7015341,5.1412539)"
     id="g3428">
    <path
       id="path3430"
       d="m 78.497,387.75221 c -4.061535,-4.06154 -12.679819,-19.43137 -12.679819,-22.61318 0,-1.2784 2.125053,-4.22608 5.233562,-7.2595 4.970943,-4.85086 5.231897,-5.36194 5.200372,-10.18495 -0.02214,-3.38783 -0.765511,-6.319 -2.233562,-8.80716 -1.210205,-2.05114 -2.190366,-4.04113 -2.178136,-4.42219 0.02868,-0.8938 3.926071,4.06989 3.955528,5.03774 0.04175,1.37183 7.212716,11.9745 10.737546,15.87606 4.68572,5.18654 6.56379,5.04896 17.284689,-1.26621 4.41053,-2.59803 15.06957,-6.45757 30,-10.86273 17.26994,-5.09541 18.73883,-6.10958 27.50814,-18.99257 13.4019,-19.68871 23.16945,-31.32819 45.90094,-54.69769 l 10.90908,-11.21527 3.27522,2.87567 c 4.32574,3.79805 7.22194,4.66541 9.14778,2.73957 1.97927,-1.97927 1.08621,-5.36914 -2.39594,-9.09438 l -2.71727,-2.90698 6.45699,-6.09302 c 14.53388,-13.71465 44.35623,-33.85643 69.71614,-47.08575 8.8968,-4.64113 12.9782,-9.23445 16.00397,-18.01131 3.45254,-10.0148 7.5434,-18.48643 14.39312,-29.80622 3.39125,-5.60436 6.99683,-12.36586 8.0124,-15.02556 1.81593,-4.75577 1.81324,-4.8896 -0.16257,-8.08652 -2.93734,-4.75272 -17.09733,-17.41587 -22.97208,-20.54373 -1.65942,-0.88351 -4.49843,-1.09989 -9,-0.68593 -4.36809,0.40167 -6.0723,0.28204 -5.07592,-0.35634 0.825,-0.52858 4.03664,-0.96794 7.13699,-0.97636 4.81451,-0.0131 6.34653,0.48334 10.5,3.40227 2.67465,1.87967 6.71377,4.69217 8.97581,6.25 2.26204,1.55783 4.51204,3.57062 5,4.47286 0.48796,0.90224 4.1497,5.6224 8.1372,10.48924 7.90172,9.64424 8.36252,11.17028 5.84897,19.37032 -1.93161,6.30158 -17.17996,44.23961 -20.0865,49.97538 -4.22343,8.33455 -7.13634,10.85828 -19.20191,16.63647 -17.34575,8.30686 -38.98938,23.11014 -61.81056,42.27568 -4.95,4.15708 -10.35,8.688 -12,10.06872 -7.62214,6.37818 -22.22424,21.69767 -31.49636,33.04375 -2.47206,3.025 -5.06598,6.10145 -5.76427,6.83656 -0.6983,0.73511 -2.49776,2.98511 -3.99881,5 -1.50105,2.01489 -2.99204,3.88844 -3.31332,4.16344 -0.32127,0.275 -4.98099,6.35 -10.35494,13.5 -15.09834,20.08825 -15.98762,20.85475 -27.8223,23.98105 -3.1625,0.83542 -8.1125,2.16025 -11,2.94407 -5.04864,1.37046 -12.21982,3.29457 -28.23162,7.57488 -10.28788,2.75018 -14.043009,2.59996 -18.417649,-0.73674 -4.68465,-3.57316 -11.83317,-11.03815 -13.897976,-14.51326 -2.032408,-3.42058 -3.202754,-3.51169 -3.202754,-0.24933 0,1.71358 -1.731156,4.19084 -5.5,7.87044 -3.073378,3.0006 -5.5,6.25953 -5.5,7.38644 0,2.64253 8.84737,19.24665 10.617321,19.92584 0.754678,0.2896 4.01579,-1.7666 7.262029,-4.57887 6.41475,-5.55719 7.10942,-5.80254 10.40583,-3.67517 1.91026,1.23281 4.00243,1.24055 15.214819,0.0564 30.57125,-3.22879 34.91121,-3.49157 38.64358,-2.33982 5.40862,1.66901 8.34082,0.47059 11.99955,-4.90434 3.02099,-4.43805 20.46422,-26.3078 24.52335,-30.74656 1.00843,-1.10275 4.30572,-4.92775 7.3273,-8.5 3.02158,-3.57224 5.72158,-6.71999 6,-6.99499 0.27842,-0.275 4.30459,-4.775 8.94705,-10 10.67455,-12.01401 38.51479,-39.85023 47.05917,-47.05236 3.575,-3.0134 10.1,-8.13809 14.5,-11.3882 4.4,-3.25011 10.25,-7.58162 13,-9.62558 8.28309,-6.15647 55.73197,-37.34618 59.61224,-39.18507 4.83602,-2.29184 5.33008,-3.11031 6.79016,-11.24879 0.6907,-3.85 2.12521,-11.5 3.18779,-17 1.06257,-5.5 2.40704,-12.7 2.98771,-16 0.58066,-3.3 1.53027,-7.89861 2.11025,-10.21913 0.57997,-2.32053 1.13023,-7.27053 1.22281,-11 0.15529,-6.25552 1.64551,-11.24796 3.37422,-11.30407 1.2282,-0.0399 8.21482,-6.72377 8.21482,-7.85889 0,-0.59323 -3.43918,-4.46244 -7.64263,-8.59825 -9.6218,-9.46698 -10.62218,-9.54692 -19.35737,-1.5467 -3.575,3.27421 -6.9125,5.96974 -7.41667,5.99007 -0.50416,0.0203 -0.72916,-0.12105 -0.5,-0.31419 0.22917,-0.19313 3.49954,-3.11813 7.2675,-6.5 4.93204,-4.42666 7.63255,-6.14884 9.64185,-6.14884 3.21025,0 9.42626,5.19931 18.30061,15.30733 5.51945,6.28675 5.64795,6.56515 4.5375,9.83132 -0.62854,1.84874 -2.35749,4.93635 -3.8421,6.86135 -1.48462,1.925 -3.21054,4.47568 -3.83539,5.66819 -2.01184,3.83951 -5.09378,16.93464 -8.19767,34.83181 -3.47686,20.04773 -5.9565,30.76534 -7.81281,33.76891 -2.08002,3.36555 -4.56412,5.34828 -20.33534,16.23109 -23.20772,16.01426 -44.02469,31.85426 -71.80748,54.63955 -15.40541,12.63432 -31.79495,28.60097 -46.04858,44.86041 -4.09828,4.675 -7.67642,8.725 -7.95142,9 -0.99707,0.99707 -7.59499,8.68661 -11.61441,13.536 -11.96074,14.43052 -19.68092,23.52093 -24.10326,28.38128 l -4.92909,5.41728 -31.92662,0.4154 c -29.33063,0.38161 -32.14434,0.56937 -34.604269,2.30916 -9.92971,7.02281 -14.02282,7.54041 -19.142531,2.4207 z m -8.284112,-57.03933 c -0.779991,-3.10774 -0.03419,-9.89691 1.519147,-13.82918 1.798094,-4.55185 2.16878,-2.52824 0.444715,2.42774 -0.993143,2.85487 -1.354191,6.17109 -1.002829,9.21095 0.593651,5.13604 0.07497,6.31827 -0.961033,2.19049 z m 3.625755,-17.82913 c -0.03409,-1.41164 11.932858,-23.92182 14.165898,-26.64645 1.2888,-1.57253 1.00426,-0.65474 -0.78597,2.53509 -1.54337,2.75 -5.18041,9.5 -8.082301,15 -2.90189,5.5 -5.285822,9.60011 -5.297627,9.11136 z M 89.817181,283.0379 c 0,-1.00031 33.375579,-42.30348 36.981429,-45.76551 0.28643,-0.275 3.43512,-3.875 6.99711,-8 9.14037,-10.58512 27.38208,-28.98899 31.95273,-32.23678 l 3.85151,-2.73679 2.6595,3.48679 c 3.16548,4.15015 6.55772,4.7003 6.55772,1.06351 0,-1.33281 -1.15466,-3.79551 -2.56591,-5.47269 l -2.56591,-3.04941 3.71754,-3.27731 c 22.79066,-20.09184 61.21571,-49.54936 71.41428,-54.74782 4.24576,-2.16417 0.92299,0.42308 -9,7.00778 -11.8967,7.89442 -42.65752,31.24414 -46,34.91737 -0.275,0.30222 -4.4375,3.85974 -9.25,7.90561 -4.8125,4.04587 -8.75,7.77566 -8.75,8.28842 0,0.51277 0.93933,2.20281 2.08739,3.75566 2.45033,3.31424 2.22082,7.4211 -0.44312,7.92913 -1.08442,0.20681 -3.24577,-0.99337 -5.20004,-2.88753 -3.22629,-3.12704 -3.43171,-3.18416 -5.82093,-1.61869 -2.86966,1.88028 -19.15946,17.85098 -25.67571,25.17275 -13.11087,14.73161 -28.87541,33.42787 -40.894839,48.5 -9.85259,12.35497 -10.05275,12.58923 -10.05275,11.76551 z M 44.893906,243.6835 c -1.692199,-1.4239 -3.076725,-3.0849 -3.076725,-3.69113 0,-0.60623 0.626029,-0.24609 1.391176,0.80031 1.348775,1.84456 1.512337,1.81858 5.366609,-0.85244 2.186489,-1.51523 4.997556,-3.84297 6.246814,-5.17275 1.614302,-1.71834 2.737711,-2.17113 3.88339,-1.56518 1.5401,0.81456 45.21801,-0.4704 49.8091,-1.46533 1.25603,-0.2722 5.53764,-4.64977 9.99632,-10.22036 8.73444,-10.91266 31.38664,-34.09512 44.30659,-45.34378 4.675,-4.07025 8.725,-7.63164 9,-7.9142 0.275,-0.28256 2.975,-2.52637 6,-4.98625 3.025,-2.45988 5.725,-4.71037 6,-5.00109 1.08266,-1.14455 25.82221,-20.77268 31,-24.59511 11.61977,-8.57813 23.46069,-16.74068 31,-21.36987 3.025,-1.85737 9.02053,-5.54984 13.32341,-8.20548 4.30287,-2.65565 8.04679,-4.82845 8.31982,-4.82845 0.27303,0 2.3775,-1.26892 4.67659,-2.81982 2.2991,-1.55091 5.75518,-3.435049 7.68018,-4.186986 6.83287,-2.669031 7.9996,-3.887248 8.00494,-8.358204 0.003,-2.274244 1.37842,-7.95999 3.05713,-12.63499 1.67871,-4.675 4.631,-13.225 6.56065,-19 1.92964,-5.775 4.19518,-11.559612 5.03451,-12.854693 1.02632,-1.58358 1.31659,-3.47132 0.88639,-5.764458 -0.52104,-2.777414 -0.28753,-3.546174 1.25913,-4.145307 3.9427,-1.527295 11.19725,-8.532453 11.19725,-10.812324 0,-1.324279 -2.11442,-4.57556 -5.10034,-7.842631 -5.70317,-6.2401771 -9.48748,-7.2880221 -12.65945,-3.5053011 -0.95711,1.141407 -2.64021,2.536191 -3.74021,3.0995181 -1.1,0.563328 -0.0306,-0.8205511 2.37638,-3.0752861 2.40701,-2.254735 5.08987,-4.099518 5.96192,-4.099518 2.556,0 15.1617,13.5002961 15.1617,16.2376861 0,1.299273 0.50705,2.869367 1.12678,3.489098 1.30071,1.300701 0.4831,5.518222 -1.44488,7.453289 -2.83422,2.844643 -4.66396,6.782595 -8.51219,18.319927 -7.33621,21.994554 -14.56492,40.648384 -17.26891,44.56274 -1.07438,1.5553 -5.23568,4.10196 -10.58556,6.47821 -10.21486,4.53713 -16.74223,8.37922 -35.14748,20.68821 -39.90114,26.68492 -76.65379,58.99309 -122.22118,107.44102 l -11.44658,12.17017 -7.91777,-1.00015 c -11.050389,-1.39585 -38.25863,1.81256 -47.822502,5.63926 -5.380606,2.15289 -8.156435,1.89906 -11.683002,-1.06835 z m -5.538263,-9.94957 c -0.962656,-2.52068 -1.542591,-4.79074 -1.288745,-5.04459 0.253846,-0.25385 1.249166,1.60083 2.211821,4.12151 0.962656,2.52068 1.542591,4.79074 1.288745,5.04459 -0.253846,0.25385 -1.249166,-1.60083 -2.211821,-4.12151 z m -2.6577,-8.06951 c -0.801086,-2.727 0.558073,-5.08528 5.381157,-9.33686 4.039745,-3.56106 4.092775,-3.81494 2.309208,-11.05517 -0.338719,-1.375 0.292148,-0.475 1.401927,2 2.867774,6.39563 3.391242,7.18427 6.104277,9.19648 3.069792,2.27681 7.031475,1.31427 15.446309,-3.75288 3.267794,-1.96776 11.1243,-5.13753 17.4589,-7.04393 18.323989,-5.5146 20.753529,-7.00586 28.559799,-17.53014 6.30412,-8.4991 31.06631,-34.36875 43.49329,-45.43849 3.0446,-2.71207 6.76225,-6.02682 8.26145,-7.36611 l 2.72582,-2.43507 3.28616,3.18507 c 3.42694,3.32152 6.44817,4.02784 8.49094,1.98507 1.92211,-1.92211 1.39528,-5.41447 -1.3,-8.61763 -1.375,-1.6341 -2.5,-3.20748 -2.5,-3.49641 0,-0.61425 16.66298,-13.03819 22.5,-16.77603 2.2,-1.4088 6.61374,-4.23689 9.80832,-6.28463 9.28581,-5.95226 25.36747,-15.443821 31.00205,-18.297716 10.13097,-5.131305 14.74377,-8.536757 16.53475,-12.206966 7.11864,-14.588065 19.41235,-34.184612 23.28728,-37.120618 0.36295,-0.275 2.20743,-2.852071 4.09886,-5.726826 l 3.43896,-5.226825 2.60127,2.726825 c 5.87209,6.155519 5.65719,9.45687 -1.50626,23.13952 -20.36255,38.893755 -24.34015,44.608576 -33.91177,48.722746 -32.29241,13.88024 -62.28183,35.64651 -96.87436,70.31126 -8.53649,8.55431 -20.05953,20.73758 -25.60674,27.07393 -11.87912,13.569 -16.4229,17.74628 -20.1407,18.51611 -4.26744,0.88364 -39.411367,10.54989 -42.462248,11.67913 -3.891307,1.44031 -7.356113,0.25895 -11.74422,-4.00432 -2.101128,-2.04135 -5.225782,-5.03348 -6.943677,-6.64918 l -3.123445,-2.93763 -4.427427,4.34519 c -3.002719,2.94694 -4.524482,5.34031 -4.729035,7.43763 -0.251949,2.58328 -0.403562,2.74537 -0.920845,0.98447 z m 4.816043,-27.51588 c -1.91775,-5.02155 -2.106373,-7.695 -0.696805,-9.87615 0.700085,-1.0833 0.973628,-0.1622 0.984687,3.31574 0.0084,2.64866 0.494497,5.71111 1.080167,6.80544 0.585669,1.09433 0.899231,2.48656 0.696804,3.09385 -0.202427,0.60728 -1.131611,-0.89522 -2.064853,-3.33888 z m 0.318508,-13.06713 c -0.0084,-0.93004 0.434687,-1.9691 0.984687,-2.30902 1.265597,-0.78218 1.265597,0.54163 0,2.5 -0.835399,1.29269 -0.971491,1.26629 -0.984687,-0.19098 z m 1.984687,-4.69099 c 0,-0.55 0.45,-1.27811 1,-1.61803 0.55,-0.33992 1,-0.16803 1,0.38197 0,0.55 -0.45,1.27811 -1,1.61803 -0.55,0.33992 -1,0.16803 -1,-0.38197 z m 2,-3.49208 c 0,-0.94182 5.274786,-9.6845 5.629194,-9.33009 0.437493,0.43749 -4.542101,9.70414 -5.214689,9.70414 -0.227978,0 -0.414505,-0.16832 -0.414505,-0.37405 z m 7.115809,-12.62595 c 3.207536,-6.8328 18.121961,-23.3395 49.32775,-54.594 13.23104,-13.25169 26.23416,-25.563485 28.89582,-27.359532 l 4.83938,-3.26554 3.20823,3.109536 c 1.76452,1.710245 3.5243,3.109536 3.91062,3.109536 1.43301,0 0.63308,-3.175316 -1.54761,-6.143177 l -2.25,-3.062192 4,-3.489715 c 4.92524,-4.296921 9.5,-7.622245 9.5,-6.905405 0,0.294634 -2.475,2.404342 -5.5,4.688239 -6.02939,4.552235 -6.6945,6.578236 -3.49488,10.645888 1.53092,1.946244 1.73845,2.87041 0.87756,3.90773 -1.62558,1.958692 -2.52625,1.716655 -6.01358,-1.616032 l -3.1127,-2.974664 -4.56241,3.224664 C 125.57977,87.386593 90.906551,121.58107 74.382673,139.39435 63.989062,150.599 59.949017,155.42779 53.538296,164.3082 l -1.778886,2.46419 1.17358,-2.5 z m 199.38419,-33.74052 c 0.55,-0.54478 3.475,-2.32587 6.5,-3.95797 3.025,-1.63209 9.00966,-4.89545 13.29925,-7.25189 4.28959,-2.35645 7.96357,-4.11912 8.1644,-3.91704 0.33671,0.3388 -25.44649,14.89464 -27.88501,15.74242 -0.71832,0.24973 -0.74459,0.0441 -0.0786,-0.61552 z m 30,-15.95911 c 1.35952,-1.35134 17.45913,-7.67457 18.04601,-7.08769 0.25776,0.25776 -3.24714,1.93542 -7.78867,3.72813 -11.47056,4.52785 -11.41409,4.50936 -10.25734,3.35956 z M 153.86961,64.579094 c 0.0721,-1.109703 22.94757,-17.938432 22.94757,-16.881783 0,0.273362 -4.37031,3.777085 -9.71181,7.786051 -13.53528,10.158669 -13.29407,9.99291 -13.23576,9.095732 z m 24.35841,-18.162443 c 0.6968,-1.127439 22.82669,-16.20778 26.58916,-18.11909 1.375,-0.698492 2.05,-0.83642 1.5,-0.306507 -1.89566,1.826425 -28.69508,19.405994 -28.08916,18.425597 z M 209.81718,25.27239 c 1.375,-1.075541 2.95,-1.955528 3.5,-1.955528 0.55,0 -0.125,0.879987 -1.5,1.955528 -1.375,1.075541 -2.95,1.955528 -3.5,1.955528 -0.55,0 0.125,-0.879987 1.5,-1.955528 z m 5,-2.310036 c 0,-0.727113 16.2489,-9.774392 16.71596,-9.307334 0.2247,0.224701 -3.09718,2.368032 -7.38197,4.762959 -8.94081,4.997356 -9.33399,5.18878 -9.33399,4.544375 z m 67.41509,-3.439964 c -1.55226,-2.0625 -5.42631,-6.39997 -8.60899,-9.6388211 l -5.7867,-5.888821 -5.7597,0.588059 c -3.67756,0.375475 -5.0367,0.270316 -3.7597,-0.290894 1.1,-0.483424 3.93466,-0.910581 6.29924,-0.949238 3.9848,-0.06514 4.71941,0.368548 10.04416,5.929715 3.15971,3.3000001 6.53048,6.0000001 7.4906,6.0000001 0.96012,0 3.57479,-0.933145 5.81038,-2.073655 2.23558,-1.140511 3.81782,-1.674203 3.51608,-1.185982 -0.30173,0.488221 -2.58433,1.934685 -5.07244,3.214364 l -4.52382,2.32669 2.03599,2.859291 c 3.00404,4.21878 1.603,3.478224 -1.6851,-0.890708 z m -48.91509,-7.25 c 0.33992,-0.55 1.06803,-1 1.61803,-1 0.55,0 0.72189,0.45 0.38197,1 -0.33992,0.55 -1.06803,1 -1.61803,1 -0.55,0 -0.72189,-0.45 -0.38197,-1 z m 4.5,-2 c 0.825,-0.5331561 1.95,-0.9693741 2.5,-0.9693741 0.55,0 0.325,0.436218 -0.5,0.9693741 -0.825,0.533156 -1.95,0.969374 -2.5,0.969374 -0.55,0 -0.325,-0.436218 0.5,-0.969374 z m 5,-2.0000001 c 0.825,-0.533156 2.175,-0.944637 3,-0.914402 0.98906,0.03625 0.81874,0.34772 -0.5,0.914402 -2.74909,1.181322 -4.32797,1.181322 -2.5,0 z m 6.5,-2 c 1.1,-0.472686 2.9,-0.859429 4,-0.859429 2,0 2,0 0,0.859429 -1.1,0.472686 -2.9,0.859429 -4,0.859429 -2,0 -2,0 0,-0.859429 z"
       style="fill:rgb(212, 47, 47)"
       inkscape:connector-curvature="0" />
  </g>
  <g
     transform="translate(-36.482824,6.8014434)"
     id="g3388" />
</svg>
