<?xml version="1.0" encoding="UTF-8" standalone="no"?>
<svg
   xmlns:dc="http://purl.org/dc/elements/1.1/"
   xmlns:cc="http://creativecommons.org/ns#"
   xmlns:rdf="http://www.w3.org/1999/02/22-rdf-syntax-ns#"
   xmlns:svg="http://www.w3.org/2000/svg"
   xmlns="http://www.w3.org/2000/svg"
   xmlns:sodipodi="http://sodipodi.sourceforge.net/DTD/sodipodi-0.dtd"
   xmlns:inkscape="http://www.inkscape.org/namespaces/inkscape"
   viewBox="0 0 400 400"
   height="400"
   width="400"
   version="1.1"
   id="svg3546"
   inkscape:version="0.91 r13725"
   sodipodi:docname="com.svg">

  <defs
     id="defs3550" />
  <g
     transform="translate(-19.292109,15.385409)"
     id="g3596">
    <path
       id="path3600"
       d="m 157.06838,156.25 -2.42431,-2.75 2.75,2.42431 c 2.57029,2.26589 3.20859,3.07569 2.42431,3.07569 -0.17912,0 -1.41662,-1.2375 -2.75,-2.75 z"
       style="fill:rgb(212, 47, 47)"
       inkscape:connector-curvature="0" />
    <path
       id="path3598"
       d="m 139.14407,345.64922 c 0,-5.87164 1.45227,-11.18837 3.79659,-13.89922 1.31871,-1.52489 3.48729,-1.75 16.8584,-1.75 l 15.34501,0 0,-24.5 0,-24.5 39.5,0 39.5,0 0,24.5 0,24.5 16.3,0 c 11.34444,0 16.66483,0.36483 17.5,1.2 0.76129,0.76129 1.2,4.6 1.2,10.5 l 0,9.3 -75,0 -75,0 0,-5.35078 z M 69.891548,256.78297 C 64.056017,255.55478 60.516218,251.73782 59.6553,245.74525 59.319861,243.41036 59.180109,195.825 59.34474,140 L 59.644069,38.5 61.990612,34.725756 C 66.50954,27.457389 53.833816,28 219.10843,28 l 149.06369,0 3.38017,2.215756 c 6.51709,4.272053 6.06655,-3.633644 6.3597,111.595354 0.30132,118.44124 0.80225,110.40216 -7.09497,113.86114 -3.97431,1.74075 -11.12286,1.83449 -150.17295,1.96936 -94.08135,0.0913 -147.690032,-0.21409 -150.752522,-0.85864 z M 360.58737,207.77749 c 1.37612,-1.96469 1.5567,-11.12884 1.5567,-79 0,-75.444157 -0.0347,-76.812222 -2,-78.77749 -1.98081,-1.980814 -3.31183,-1.999695 -138.75,-1.968197 C 109.27,48.05788 84.328929,48.302832 82.894069,49.392046 c -1.640553,1.245357 -1.75,6.243562 -1.75,79.918504 0,73.79272 0.106825,78.65229 1.75,79.60935 1.164934,0.67851 47.616951,1.02945 138.943301,1.04969 L 359.03066,210 l 1.55671,-2.22251 z m -175.4433,-26.84678 c -4.16106,-0.78613 -5.93107,-2.31729 -23.5,-20.32896 C 148.46698,147.09261 141.45738,140.64441 138.77195,139.56148 135.7142,138.32841 130.71916,138 115.02195,138 l -19.877881,0 0,-11 0,-11 16.950781,0 c 30.20457,0 36.4473,2.78449 56.04922,25 4.125,4.675 9.36283,10.525 11.63963,13 2.2768,2.475 5.39151,6.00672 6.92158,7.84826 l 2.78195,3.34827 1.80618,-2.34827 c 0.9934,-1.29154 1.81619,-2.60698 1.82842,-2.9232 0.0122,-0.31622 2.63612,-5.26622 5.83085,-11 3.19474,-5.73378 7.52914,-13.57506 9.632,-17.42506 2.10286,-3.85 5.11398,-9.3625 6.69139,-12.25 1.5774,-2.8875 4.1586,-7.6125 5.736,-10.5 1.57741,-2.8875 4.46559,-8.175 6.41818,-11.75 11.01309,-20.16382 12.05505,-21.390524 19.61122,-23.088282 6.03453,-1.355869 11.77614,0.423647 16.1026,4.990736 2.70676,2.857306 4.27599,6.176689 6.92391,14.646104 6.00644,19.211682 8.04265,22.689882 16.57609,28.314792 l 4,2.63665 26.25,0.31054 26.25,0.31054 0,8.43946 0,8.43946 -24.25,-0.0119 c -29.60762,-0.0145 -35.90926,-1.3188 -46.91236,-9.70987 C 263.73317,125.98784 259.10499,118.05191 253.01147,99.75 251.77541,96.0375 250.48245,93 250.13822,93 c -0.34423,0 -1.56376,1.6875 -2.71008,3.75 -1.14631,2.0625 -3.0928,5.55 -4.32552,7.75 -1.23273,2.2 -3.36443,6.025 -4.73712,8.5 -1.3727,2.475 -4.1729,7.425 -6.22268,11 -2.04979,3.575 -5.20185,9.2 -7.0046,12.5 -1.80274,3.3 -5.83727,10.5 -8.96561,16 -3.12835,5.5 -7.30042,12.925 -9.27128,16.5 -4.3444,7.88045 -7.01042,10.46845 -12.25726,11.89857 -2.2,0.59965 -4.225,1.04348 -4.5,0.98629 -0.275,-0.0572 -2.525,-0.48656 -5,-0.95415 z"
       style="fill:rgb(212, 47, 47)"
       inkscape:connector-curvature="0" />
  </g>
</svg>
