<?xml version="1.0" encoding="UTF-8" standalone="no"?>
<!-- Created with Inkscape (http://www.inkscape.org/) -->

<svg
   xmlns:dc="http://purl.org/dc/elements/1.1/"
   xmlns:cc="http://creativecommons.org/ns#"
   xmlns:rdf="http://www.w3.org/1999/02/22-rdf-syntax-ns#"
   xmlns:svg="http://www.w3.org/2000/svg"
   xmlns="http://www.w3.org/2000/svg"
   xmlns:sodipodi="http://sodipodi.sourceforge.net/DTD/sodipodi-0.dtd"
   xmlns:inkscape="http://www.inkscape.org/namespaces/inkscape"
   id="svg3748"
   version="1.1"
   inkscape:version="0.91 r13725"
   width="400"
   height="400"
   viewBox="0 0 400 400"
   sodipodi:docname="ds.svg">

  <defs
     id="defs3752" />

  <g
     id="g3758"
     transform="translate(-19.547676,-5.768)">

    <path
       style="fill:rgb(212, 47, 47)"
       d="m 341.26903,404.30701 c 0.97297,-0.25354 2.32297,-0.23687 3,0.0371 0.67703,0.27393 -0.11903,0.48137 -1.76903,0.46099 -1.65,-0.0204 -2.20394,-0.2445 -1.23097,-0.49804 z M 361,325.62244 c 0,-0.20765 0.7875,-0.99515 1.75,-1.75 1.58606,-1.24387 1.62143,-1.2085 0.37756,0.37756 C 361.82119,325.91575 361,326.44548 361,325.62244 Z m -246,-71 c 0,-0.20765 0.7875,-0.99515 1.75,-1.75 1.58606,-1.24387 1.62143,-1.2085 0.37756,0.37756 C 115.82119,254.91575 115,255.44548 115,254.62244 Z M 115.87244,87.25 C 114.62857,85.663944 114.66394,85.628574 116.25,86.872445 117.91575,88.178814 118.44548,89 117.62244,89 c -0.20765,0 -0.99515,-0.7875 -1.75,-1.75 z M 301.15789,57 c 0,-1.375 0.22698,-1.9375 0.50439,-1.25 0.27741,0.6875 0.27741,1.8125 0,2.5 -0.27741,0.6875 -0.50439,0.125 -0.50439,-1.25 z M 155.29571,31.255869 c 4.28763,-0.187904 11.03763,-0.186758 15,0.0025 3.96236,0.189304 0.45429,0.343044 -7.79571,0.341643 -8.25,-0.0014 -11.49193,-0.156287 -7.20429,-0.34419 z m 99.45429,0.0016 c 3.9875,-0.189811 10.5125,-0.189811 14.5,0 3.9875,0.189812 0.725,0.345113 -7.25,0.345113 -7.975,0 -11.2375,-0.155301 -7.25,-0.345113 z m -44,-19.919774 c 0.6875,-0.277412 1.8125,-0.277412 2.5,0 0.6875,0.277413 0.125,0.504386 -1.25,0.504386 -1.375,0 -1.9375,-0.226973 -1.25,-0.504386 z"
       id="path3762"
       inkscape:connector-curvature="0" />
    <path
       style="fill:rgb(212, 47, 47)"
       d="M 324.6157,401.49875 C 301.66605,393.55165 287,373.00836 287,348.80902 c 0,-17.23642 7.88912,-33.24038 21.4171,-43.44695 10.91257,-8.2333 20.25982,-11.33208 34.23711,-11.3502 24.25439,-0.0315 45.9304,16.41425 53.00879,40.21804 2.32428,7.81627 2.01535,23.60355 -0.61622,31.49106 -5.81052,17.41565 -19.04931,30.62091 -36.41347,36.32127 -8.86911,2.91158 -24.77386,2.65747 -34.01761,-0.54349 z m 7.66819,-21.41659 c 2.57349,-0.97843 2.99008,-1.37743 29.46611,-28.22176 15.81007,-16.02999 17.25,-17.78632 17.25,-21.04032 0,-2.06126 -0.85702,-4.63988 -2.04333,-6.14804 -2.33108,-2.96348 -7.77331,-4.37572 -10.74125,-2.78733 -1.09735,0.58728 -9.6091,8.78598 -18.915,18.21933 -13.59665,13.78286 -17.3009,17.02144 -18.86012,16.48917 -1.06716,-0.3643 -3.6136,-2.78431 -5.65875,-5.37779 C 315.15698,341.54659 313.34094,340 309.61213,340 c -5.21752,0 -9.06668,3.70117 -9.06668,8.71809 0,3.5245 1.08188,5.22732 10.47728,16.49064 13.05553,15.65115 15.2246,17.16853 21.26116,14.87343 z M 74.852625,400.33044 c -0.906056,-0.24066 -1.912412,-1.42596 -2.236345,-2.634 C 72.292346,396.4884 72.021165,321.20724 72.013655,230.40499 72.00053,71.724039 72.071048,65.245678 73.828741,63.654988 75.340025,62.287294 77.997533,62 89.137611,62 c 15.681209,0 16.592679,0.383784 18.486529,7.783987 4.23584,16.551521 17.29837,29.166979 33.35326,32.211723 7.11426,1.3492 136.93094,1.3492 144.0452,0 13.18829,-2.501103 24.64435,-11.66446 30.54234,-24.429892 C 317.45422,73.476712 319,69.201588 319,68.06554 319,66.929493 319.9,65.1 321,64 c 1.7959,-1.795904 3.33333,-2 15.06574,-2 7.18616,0 13.93616,0.465833 15,1.035184 C 352.95911,64.048486 353,66.275951 353,168.41274 c 0,91.15046 -0.18811,104.49849 -1.48786,105.57719 -0.90635,0.7522 -5.49868,1.35134 -11.75,1.53296 -20.50037,0.59562 -35.70979,7.22936 -50.28248,21.93119 -8.99336,9.07307 -14.74121,18.86866 -18.51048,31.54592 -1.77825,5.9808 -2.22361,9.93072 -2.19868,19.5 0.0314,12.0357 1.11196,18.21613 4.80816,27.5 2.2326,5.60768 9.54546,18 10.62202,18 1.67643,0 0.73156,4.9659 -1.13494,5.96482 -1.88799,1.01042 -204.446349,1.36611 -208.213115,0.36562 z M 212.89586,338.59501 c 2.9624,-2.68201 2.96241,-10.50799 2e-5,-13.19002 -1.99176,-1.80325 -4.48849,-1.92142 -46.75,-2.21266 -40.51651,-0.27921 -44.94486,-0.1499 -47.87834,1.39803 -5.87967,3.10256 -5.43312,11.97091 0.76269,15.14661 1.90609,0.97699 12.65929,1.20852 47.11563,1.01447 42.30546,-0.23826 44.75616,-0.3513 46.75,-2.15643 z m 95.0898,-71.58733 c 2.60448,-1.39388 4.32236,-7.06732 3.10747,-10.26272 C 308.7836,250.67043 314.45503,251 212.23204,251 l -93.32295,0 -2.45454,2.45455 c -3.09383,3.09382 -3.25927,8.25269 -0.38197,11.91059 l 2.07258,2.63486 93.99316,0 c 60.265,0 94.65851,-0.35608 95.84734,-0.99232 z m 1.12314,-52.67182 c 2.98225,-2.98255 2.98225,-9.68917 0,-12.67172 l -2.16392,-2.16414 -93.53419,-0.26517 -93.53419,-0.26518 -2.93825,2.93825 C 114.92944,203.91672 114,205.84379 114,208 c 0,2.15621 0.92944,4.08328 2.93825,6.0921 l 2.93825,2.93825 93.53419,-0.26518 93.53419,-0.26517 2.16392,-2.16414 z m -0.72244,-50.65543 c 2.3891,-1.91172 2.88637,-3.06246 2.88637,-6.67936 0,-3.5041 -0.53331,-4.82846 -2.69213,-6.6854 L 305.88847,148 l -93.19423,0.0318 c -71.68203,0.0245 -93.56049,0.31301 -94.7809,1.25 -4.66551,3.58207 -5.10339,9.682 -0.99026,13.79512 L 119.84615,166 212.67308,165.995 305.5,165.99 l 2.88636,-2.30964 z M 141.5,82.763858 C 122.70353,76.008108 116.82002,53.379981 130.34367,39.856332 137.23471,32.965295 140.8197,32 159.52122,32 c 18.63993,0 21.76348,-0.750581 25.53863,-6.136861 3.39188,-4.839434 7.6959,-8.415235 13.6272,-11.321524 C 202.95548,12.450117 205.321,12 212.04408,12 c 11.0333,0 18.64661,3.502837 26.00759,11.965935 2.82401,3.246834 6.50981,6.382749 8.19067,6.9687 1.68086,0.585951 10.30146,1.069761 19.15688,1.075134 14.75459,0.009 16.51944,0.204729 21.10806,2.341541 5.57088,2.594226 10.72285,7.870365 12.99485,13.308041 1.93518,4.631533 1.92202,15.081262 -0.0249,19.740801 -2.33588,5.590561 -8.41176,11.667922 -14.25578,14.259263 L 279.94297,84 212.22149,83.921053 C 166.51245,83.867767 143.52487,83.491628 141.5,82.763858 Z"
       id="path3760"
       inkscape:connector-curvature="0" />
  </g>
</svg>
