<?xml version="1.0" encoding="UTF-8" standalone="no"?>
<svg
   xmlns:dc="http://purl.org/dc/elements/1.1/"
   xmlns:cc="http://creativecommons.org/ns#"
   xmlns:rdf="http://www.w3.org/1999/02/22-rdf-syntax-ns#"
   xmlns:svg="http://www.w3.org/2000/svg"
   xmlns="http://www.w3.org/2000/svg"
   viewBox="0 0 400 400"
   height="400"
   width="400"
   version="1.1"
   id="svg3388">

  <defs
     id="defs3392" />
  <g
     transform="matrix(1.035017,0,0,1,-9.1850204,6.2542379)"
     id="g3398">

    <path
       id="path3406"
       d="m 158.64756,333.57209 c -3.09045,-1.06429 -6.39951,-2.33439 -7.35345,-2.82244 -2.61374,-1.33721 -22.37371,-29.13784 -25.63459,-36.0657 -2.70963,-5.75672 -2.04636,-5.55134 -25.730637,-7.96744 -23.253529,-2.37216 -24.237019,-2.61368 -27.755296,-6.81603 -1.894332,-2.26265 -5.328313,-8.2125 -6.957636,-12.05505 -1.895858,-4.47117 -2.345494,-9.06472 -2.964319,-30.28399 -0.324195,-11.11652 -0.728334,-23.63097 -0.898088,-27.80988 l -0.308643,-7.59802 -7.663021,0.187 c -7.556636,0.18441 -7.672166,0.21039 -8.321773,1.87133 -0.408852,1.04537 -1.004238,11.39636 -1.569483,27.28601 -1.175707,33.05045 -0.979734,31.37948 -3.983552,33.96597 -2.869632,2.47095 -2.921706,2.47648 -6.065968,0.64487 l -2.461101,-1.43366 -0.363436,-8.10432 c -0.19989,-4.45738 -0.363436,-20.33046 -0.363436,-35.27353 l 0,-27.16921 -2.775803,-8.34238 -2.775802,-8.34239 1.063344,-24.84979 c 1.470421,-34.36295 1.535546,-35.14991 3.003899,-36.29856 1.550965,-1.21328 13.704818,-5.45167 14.139264,-4.93077 0.181564,0.2177 0.588528,13.99703 0.904363,30.62073 l 0.574246,30.22491 1.595915,1.79312 c 1.23789,1.39085 2.394258,1.89453 5.154595,2.24518 1.957276,0.24864 4.555478,0.35126 5.773783,0.22807 1.934378,-0.19561 2.266466,-0.48014 2.620399,-2.24518 0.222914,-1.11166 0.961074,-11.11653 1.640357,-22.23306 l 1.235059,-20.21186 1.763554,-3.36244 c 2.362491,-4.50438 4.540842,-7.41211 6.815772,-9.09792 1.044866,-0.77428 6.280381,-2.58682 11.760986,-4.07167 11.950999,-3.23785 14.400646,-4.20075 15.496118,-6.09118 0.463568,-0.79997 2.1373,-4.31865 3.7194,-7.81929 3.15768,-6.986821 5.0019,-8.975006 15.38524,-16.58616 l 4.77616,-3.501002 19.9475,-0.336865 19.94749,-0.336864 0.16391,-4.813976 0.1639,-4.813975 -3.81626,-1.727818 c -3.69393,-1.672431 -4.42636,-1.747856 -22.84875,-2.352951 -12.56306,-0.412642 -19.16081,-0.874111 -19.41003,-1.357602 -0.20765,-0.402856 -0.85308,-3.022104 -1.43427,-5.82055 -1.002,-4.824613 -1.00799,-5.270299 -0.11563,-8.606962 0.5176,-1.935383 1.18453,-3.973645 1.48205,-4.529472 0.47599,-0.889252 8.78495,-1.010593 69.2018,-1.010593 l 68.66085,0 1.3164,4.678903 c 1.60895,5.718769 1.62747,7.10928 0.17001,12.767079 l -1.14638,4.450205 -19.67742,0 -19.67743,0 -2.4951,2.500721 c -2.40658,2.412012 -2.4951,2.634489 -2.4951,6.271655 0,2.074012 0.32573,4.305048 0.72385,4.957856 1.07208,1.75795 6.38685,2.271246 28.49502,2.752025 18.48988,0.402094 19.50003,0.490215 21.86247,1.907158 l 2.47688,1.485585 6.01166,18.038073 c 3.30641,9.92093 6.11108,18.14883 6.23259,18.2842 0.12151,0.13537 2.11735,1.60521 4.43519,3.2663 l 4.21426,3.02017 9.75958,1.1035 c 10.56564,1.19464 13.10486,2.1018 14.02897,5.01193 0.31533,0.99302 0.98955,6.18772 1.49826,11.54377 0.50871,5.35606 1.16794,10.2827 1.46493,10.9481 0.4383,0.98195 1.26009,1.20981 4.36335,1.20981 3.56783,0 3.86764,-0.11655 4.48607,-1.74398 0.36836,-0.96937 0.82139,-6.78337 1.01998,-13.09 l 0.35727,-11.34602 3.98685,-0.36756 c 2.19276,-0.20217 11.19322,-0.45102 20.00102,-0.55302 l 16.01419,-0.18544 2.52855,6.12075 c 1.39071,3.36641 5.1004,13.67447 8.24377,22.90678 l 5.71521,16.78603 1.49073,21.2642 1.49073,21.26421 -2.05828,25.77451 -2.05828,25.7745 -6.06932,17.63926 c -3.33813,9.70159 -6.39452,18.48351 -6.79197,19.51539 -0.75687,1.96498 -5.05837,5.4393 -9.82049,7.93201 -2.59244,1.35699 -3.9566,1.48242 -19.74203,1.81513 l -16.95715,0.35741 -0.33872,-2.28483 c -0.18628,-1.25666 -0.56586,-6.52933 -0.84348,-11.71704 l -0.50478,-9.43221 -2.14685,-2.17959 c -2.65181,-2.69226 -4.43512,-2.76389 -6.91862,-0.27794 l -1.91982,1.9217 -0.377,11.72131 c -0.5304,16.49096 -0.93176,17.61964 -8.42055,23.67999 l -5.61956,4.54767 -63.05471,-0.0409 -63.05472,-0.0409 -5.61901,-1.93507 z m -50.71399,-90.59672 c 5.6168,-1.42716 10.58012,-4.5227 13.50433,-8.4224 3.15791,-4.21138 5.55898,-10.21979 5.66322,-14.17161 l 0.08,-3.03178 -5.83794,0 -5.83794,0 -0.66711,2.70903 c -1.00182,4.0682 -2.28248,5.99928 -5.27271,7.95067 -3.32437,2.16943 -7.90826,2.90468 -11.32221,1.81605 -3.682746,-1.17435 -8.041897,-6.71231 -9.384459,-11.92224 -1.38535,-5.37595 -1.366785,-17.21143 0.03568,-22.74696 2.667907,-10.53027 8.901207,-14.89804 17.766029,-12.44891 3.52966,0.97515 6.09373,3.56703 7.70601,7.78958 0.75793,1.98502 1.54917,3.63294 1.7583,3.66204 3.36962,0.46888 8.09548,0.60393 9.58474,0.27391 l 1.8998,-0.42099 -0.32291,-3.26904 c -0.87724,-8.88102 -8.43757,-18.03868 -17.25268,-20.89779 -3.66581,-1.18897 -12.220894,-1.00428 -16.099237,0.34757 -4.655684,1.62281 -6.203289,2.7269 -10.082127,7.19282 -5.924585,6.8213 -8.652571,15.92244 -8.638793,28.82085 0.01405,13.15885 2.571794,21.98487 8.394209,28.96604 6.426931,7.706 14.507194,10.29795 24.325828,7.80316 z m 174.84926,-1.01224 c 4.81773,-1.99311 7.66715,-4.1973 10.88751,-8.42216 3.01308,-3.95288 5.25376,-9.71409 5.38017,-13.83334 l 0.0724,-2.35805 -5.96913,-0.19036 -5.96912,-0.19036 -0.62927,2.99639 c -1.25837,5.99204 -5.0627,9.37137 -11.47719,10.19501 -4.95445,0.63617 -7.98367,-0.67617 -10.97914,-4.75647 -3.14126,-4.27887 -4.59019,-10.07739 -4.59019,-18.36961 0,-10.65907 2.23544,-18.20253 6.56965,-22.16918 1.84403,-1.68765 2.57782,-1.89911 7.32325,-2.11032 3.30146,-0.14695 5.89045,0.0715 6.92245,0.58401 2.14599,1.0658 5.28293,5.26085 6.19474,8.28425 0.42085,1.39545 1.2045,2.54358 1.88585,2.76296 1.85451,0.59712 9.51593,0.43262 10.37932,-0.22285 2.05632,-1.56115 -1.54131,-11.96371 -5.81266,-16.80732 -3.30232,-3.74477 -5.98351,-5.56216 -10.44156,-7.07759 -13.27676,-4.51318 -25.88201,1.33338 -31.82113,14.75928 -3.19304,7.21812 -3.69617,10.56281 -3.47685,23.11324 l 0.19607,11.22011 2.36828,5.91035 c 3.8123,9.51411 10.21724,16.24184 17.14771,18.01194 3.6895,0.94233 12.04154,0.24104 15.83888,-1.32993 z m -134.23421,-3.64132 c 0.2036,-1.95384 0.31755,-4.13693 0.25322,-4.85131 -0.0643,-0.71439 -0.0878,-6.22553 -0.0523,-12.24698 l 0.0647,-10.94809 10.95707,0 c 10.05433,0 10.95846,0.0971 10.97384,1.17902 0.15687,11.03356 0.66744,29.00218 0.84232,29.64407 0.16411,0.60233 1.89886,0.84216 6.09162,0.84216 l 5.86216,0 0.3881,-7.57945 c 0.64195,-12.537 0.11829,-62.95873 -0.66359,-63.89546 -0.8059,-0.96551 -10.70189,-1.06315 -11.49399,-0.1134 -0.2926,0.35082 -0.68662,6.44525 -0.87561,13.54317 l -0.34363,12.90531 -10.86915,0 -10.86914,0 -0.0462,-10.61123 c -0.0436,-10.01928 -0.22449,-13.53906 -0.79624,-15.49576 -0.17585,-0.60174 -1.93547,-0.84216 -6.1637,-0.84216 l -5.9176,0 0,35.65148 c 0,27.89795 0.15276,35.72247 0.70238,35.9779 0.38631,0.17952 3.15108,0.34142 6.14394,0.35978 l 5.44157,0.0334 0.37017,-3.55243 z m 91.73526,-2.86658 0.16064,-6.1486 -16.03435,-0.49718 -16.03435,-0.49718 0,-8.34469 0,-8.3447 9.74849,0 c 5.36168,0 11.68306,-0.19607 14.04753,-0.43572 l 4.29904,-0.43572 0,-5.96471 0,-5.96469 -4.35473,-0.0726 c -2.39511,-0.04 -5.23973,-0.15885 -6.32139,-0.26422 -1.08166,-0.10536 -5.44342,-0.22426 -9.6928,-0.26421 l -7.72614,-0.0726 0,-7.41102 0,-7.41102 9.6928,-0.003 c 5.33104,-0.002 12.15814,-0.19924 15.17133,-0.43849 l 5.47854,-0.43499 0,-5.54259 c 0,-4.10398 -0.21869,-5.7602 -0.84257,-6.38102 -1.23309,-1.22704 -40.97518,-1.33302 -41.99348,-0.11198 -0.55538,0.66594 -0.7113,8.45688 -0.7113,35.54081 0,30.09547 0.11159,34.77401 0.84285,35.3383 0.51449,0.39702 9.271,0.58429 22.47605,0.48069 l 21.6332,-0.16971 0.16064,-6.14859 z m 80.20527,5.55361 c 0.11127,-0.41386 0.30809,-5.6879 0.43738,-11.72008 l 0.23508,-10.9676 2.21798,-3.13762 c 1.21989,-1.72569 2.48665,-3.245 2.81504,-3.37624 0.32838,-0.13125 4.52307,6.07738 9.32154,13.79694 4.79847,7.71956 9.16797,14.47748 9.71,15.01758 1.06227,1.05849 12.86719,1.7077 14.12352,0.77671 0.72091,-0.53422 -1.44025,-4.23217 -15.42119,-26.38713 -5.655,-8.9612 -8.42945,-13.89313 -8.14757,-14.48332 0.23508,-0.49221 4.40018,-6.1751 9.25576,-12.62864 9.45454,-12.56599 12.24296,-16.54414 12.24296,-17.46665 0,-0.3196 -3.09748,-0.57735 -6.88329,-0.57276 l -6.88329,0.008 -10.86335,14.53307 c -5.97485,7.99318 -11.03193,14.33094 -11.23796,14.08391 -0.20604,-0.24704 -0.50107,-6.71488 -0.65563,-14.37298 l -0.28101,-13.92383 -6.32139,-0.19049 -6.32139,-0.1905 0.009,34.88753 c 0.004,19.18814 0.19437,35.22105 0.42142,35.62867 0.71413,1.28208 1.95692,1.54434 7.0615,1.4902 3.12339,-0.0332 5.03796,-0.33157 5.16528,-0.80513 z"
       style="fill:#d42f2f" />



  </g>
</svg>
