<?xml version="1.0" encoding="UTF-8" standalone="no"?>
<svg
   xmlns:dc="http://purl.org/dc/elements/1.1/"
   xmlns:cc="http://creativecommons.org/ns#"
   xmlns:rdf="http://www.w3.org/1999/02/22-rdf-syntax-ns#"
   xmlns:svg="http://www.w3.org/2000/svg"
   xmlns="http://www.w3.org/2000/svg"
   xmlns:sodipodi="http://sodipodi.sourceforge.net/DTD/sodipodi-0.dtd"
   xmlns:inkscape="http://www.inkscape.org/namespaces/inkscape"
   viewBox="0 0 400 400"
   height="400"
   width="400"
   version="1.1"
   id="svg3620"
   inkscape:version="0.91 r13725"
   sodipodi:docname="ext.svg">

  <defs
     id="defs3624" />
  <g
     transform="translate(-17.621874,29.582946)"
     id="g3630">

    <path
       id="path3632"
       d="m 137.30997,298.49742 c -4.13534,-0.758 -8.05293,-2.37152 -11.80228,-4.86095 -7.50525,-4.98321 -18.49447,-15.92646 -22.42254,-22.32876 l -3.185675,-5.19228 -6.699738,6.75129 C 89.514882,276.57994 84.7,280.46105 82.5,281.49141 66.001002,289.21869 46.495228,281.12673 33.105189,261 26.390914,250.90769 25,246.42672 25,234.88829 25,220.997 29.611918,211.51366 38.553446,207.01877 40.174051,206.2041 43.075,204.57394 45,203.3962 c 3.553419,-2.17402 24.016073,-14.25107 29.5,-17.41088 13.931688,-8.02738 21.169573,-12.31036 22.106504,-13.08142 0.608577,-0.50083 1.402556,-4.46053 1.764398,-8.79933 1.121789,-13.45123 4.460758,-20.97799 13.132968,-29.60457 5.17907,-5.15183 8.78577,-7.38079 25.51393,-15.76779 28.61964,-14.34903 74.73151,-38.446074 96.4822,-50.419462 3.3,-1.816594 8.43402,-4.542614 11.40892,-6.057823 2.97491,-1.515209 8.43108,-5.514017 12.12482,-8.88624 6.83868,-6.243411 13.33362,-9.479274 22.95242,-11.435189 19.23757,-3.911828 22.24065,-4.224857 41.51384,-4.327246 19.01344,-0.101009 23.34183,0.293996 39,3.559107 24.88172,5.188446 41.49297,17.784347 47.91746,36.334643 8.32447,24.03636 2.70114,42.14132 -18.20441,58.61116 C 380.7511,143.56549 366.08679,155.89961 363,159 c -0.275,0.27621 -3.875,3.42621 -8,7 -4.125,3.57379 -7.725,6.72379 -8,7 -0.275,0.27621 -3.875,3.42621 -8,7 -4.125,3.57379 -7.725,6.72602 -8,7.00496 -0.275,0.27895 -7.025,6.12363 -15,12.9882 -7.975,6.86457 -16.13908,13.97682 -18.1424,15.80501 -2.00333,1.8282 -4.29,3.85901 -5.0815,4.51291 -0.7915,0.65391 -3.14737,3.57748 -5.23527,6.49683 -4.45692,6.23176 -13.91338,14.16115 -21.05579,17.65561 -9.80992,4.79955 -13.20151,5.53375 -25.86077,5.5983 -6.66835,0.034 -15.33214,0.38392 -19.25287,0.77758 -6.47183,0.64981 -7.63645,1.1278 -12.6409,5.18818 -3.03176,2.45983 -11.03304,8.74742 -17.78062,13.97242 -6.74757,5.225 -15.18346,12.27462 -18.74643,15.66582 -11.60756,11.04798 -22.59036,15.08675 -34.89348,12.8316 z m 20.25254,-6.63181 c 8.43687,-3.96579 11.95895,-11.19309 11.89102,-24.40031 -0.0498,-9.68751 -2.08948,-16.56994 -7.42226,-25.04515 -9.7658,-15.52043 -25.46848,-24.26885 -37.813,-21.06673 -6.52511,1.6926 -9.67842,3.81256 -12.52701,8.42188 -4.81155,7.78561 -5.85829,16.63914 -3.18338,26.92591 6.75975,25.99569 31.23504,43.5406 49.05463,35.1644 z M 78.110101,278.46115 c 11.327984,-3.99674 16.562879,-16.07894 13.462384,-31.07135 -2.57713,-12.46168 -7.09718,-20.801 -15.896735,-29.32887 -9.308882,-9.02148 -21.878728,-13.12922 -30.982231,-10.1248 -12.272355,4.05025 -17.163557,20.61574 -11.248941,38.09784 5.391503,15.93592 16.948925,28.04742 31.001047,32.48729 5.554549,1.75499 8.557372,1.74179 13.664476,-0.0601 z M 198,251.61948 c 12.375,-9.89235 22.725,-18.25553 23,-18.58485 0.275,-0.32932 7.16188,-5.94697 15.30418,-12.48367 8.14229,-6.5367 15.22979,-12.68018 15.75,-13.65219 1.29772,-2.42482 1.19662,-13.62573 -0.13039,-14.44587 -0.59192,-0.36583 -2.72942,0.65374 -4.75,2.26569 -2.02059,1.61196 -8.62379,6.71483 -14.67379,11.33973 -6.05,4.62489 -11.675,8.96119 -12.5,9.63621 -4.74869,3.88545 -44.67448,34.7013 -46.56355,35.93906 -1.95749,1.2826 -2.13993,1.91351 -1.34992,4.66812 0.50241,1.7518 0.91347,5.80211 0.91347,9.00071 0,4.38915 0.3066,5.63012 1.25,5.05938 0.6875,-0.41593 11.375,-8.84997 23.75,-18.74232 z m -93.11196,-38.92337 c 9.68658,-6.21714 28.50902,-18.25464 41.82766,-26.75 C 167.98653,172.37839 173.66889,168 170.00646,168 c -0.54645,0 -8.30895,4.64866 -17.25,10.33035 C 143.81541,184.01205 125.25,195.77384 111.5,204.46766 97.75,213.16149 85.942455,220.71382 85.26101,221.25062 83.906413,222.31768 84.479172,224 86.197061,224 c 0.593465,0 9.004408,-5.08675 18.690979,-11.30389 z m -17.852326,8.95138 c 1.296694,-1.1977 78.182036,-50.10186 81.964286,-52.1347 5.46321,-2.93629 -3.71611,3.25861 -24.5,16.53446 -13.2,8.43159 -31.57006,20.19525 -40.82235,26.14146 -15.941336,10.24508 -19.975812,12.53816 -16.641936,9.45878 z M 257.79761,215.9688 C 264.23005,209.40673 267,202.52616 267,193.11 267,185.66387 266.5941,183.70837 263.65606,177 260.65267,170.14241 252.57738,160.05251 246.6977,155.81091 242.3819,152.69749 234.04228,150 228.73257,150 c -5.48736,0 -15.25331,3.02457 -20.28239,6.28158 -3.60119,2.33226 -4.68335,4.40561 -1.70241,3.26172 8.67663,-3.32954 22.43052,-3.08998 28.84471,0.50239 6.98786,3.91367 9.14041,5.84937 14.41151,12.9597 6.0015,8.09557 8.99601,15.1991 8.99601,21.34018 0,6.78809 -4.33927,18.57186 -9.62102,26.12694 -3.7768,5.40238 1.44826,2.60713 8.41863,-4.50371 z M 300.44342,198.25 c 8.59201,-8.08143 13.46644,-12.41425 26.05658,-23.16137 6.05,-5.16436 12.66747,-10.82806 14.70548,-12.586 2.03802,-1.75794 17.65027,-14.82204 34.6939,-29.03134 30.39704,-25.34206 31.01034,-25.92647 32.13731,-30.62422 C 409.23941,97.833561 408.51891,90 406.85507,90 406.04926,90 374.56519,113.23418 373,114.9839 c -0.275,0.30742 -6.575,5.16171 -14,10.78731 -7.425,5.62559 -17.1,13.0019 -21.5,16.39178 -4.4,3.38989 -11.58863,8.90249 -15.97472,12.25022 -4.3861,3.34773 -8.6611,6.63613 -9.5,7.30755 -0.83891,0.67142 -5.80028,4.52951 -11.02528,8.57354 -8.55929,6.6247 -9.46997,7.64257 -9.19677,10.27924 0.16677,1.60955 0.54523,7.53896 0.84102,13.17646 0.29579,5.6375 0.79612,10.25 1.11184,10.25 0.31573,0 3.32503,-2.5875 6.68733,-5.75 z M 188.25,169.51636 c 1.5125,-1.33123 2.75,-3.05768 2.75,-3.83655 0,-0.77887 -2.22933,-4.28795 -4.95407,-7.79797 -5.16735,-6.65658 -12.57574,-12.37857 -18.86212,-14.56846 -5.80306,-2.02152 -16.24447,-1.63583 -22.8963,0.84576 -9.45014,3.52554 -18.25313,10.2612 -10.03751,7.68026 16.05993,-5.04525 29.2302,-2.55596 39.55666,7.47654 2.36867,2.30123 5.51867,6.09576 7,8.43227 1.48134,2.33652 3.14334,4.2348 3.69334,4.2184 0.55,-0.0164 2.2375,-1.11901 3.75,-2.45025 z M 294.5,141.49355 c 8.8,-6.64678 35.03457,-26.39177 58.29905,-43.877738 35.45197,-26.646291 42.10331,-32.028537 41.08979,-33.249753 -0.6651,-0.801392 -1.72951,-1.25744 -2.36537,-1.01344 -1.01969,0.391293 -27.68928,20.391389 -94.87578,71.149381 -10.91876,8.2489 -20.30442,15.27932 -20.85701,15.62315 -0.55259,0.34384 -0.69915,1.58787 -0.3257,2.76452 0.82206,2.59007 -0.64416,3.46789 19.03502,-11.39612 z m -17.88161,10.69801 c -0.30781,-0.49805 15.96463,-13.34274 36.16098,-28.54376 20.19634,-15.20101 46.31257,-34.885925 58.03604,-43.744253 11.72348,-8.858328 21.59848,-15.822987 21.94445,-15.477021 0.34597,0.345966 -0.24597,1.462839 -1.31542,2.48194 C 390.375,67.927566 364.75,87.33873 334.5,110.04439 c -30.25,22.70565 -55.52244,41.68119 -56.16097,42.16787 -0.6765,0.51561 -1.39452,0.50697 -1.72064,-0.0207 z"
       style="fill:rgb(212, 47, 47)"
       inkscape:connector-curvature="0" />
  </g>
</svg>
