<?xml version="1.0" encoding="UTF-8" standalone="no"?>
<!-- Created with Inkscape (http://www.inkscape.org/) -->

<svg
   xmlns:dc="http://purl.org/dc/elements/1.1/"
   xmlns:cc="http://creativecommons.org/ns#"
   xmlns:rdf="http://www.w3.org/1999/02/22-rdf-syntax-ns#"
   xmlns:svg="http://www.w3.org/2000/svg"
   xmlns="http://www.w3.org/2000/svg"
   xmlns:sodipodi="http://sodipodi.sourceforge.net/DTD/sodipodi-0.dtd"
   xmlns:inkscape="http://www.inkscape.org/namespaces/inkscape"
   id="svg3276"
   sodipodi:docname="Oil.svg"
   viewBox="0 0 400 400.00001"
   version="1.1"
   inkscape:version="0.91 r13725"
   width="400"
   height="400">
  <defs
     id="defs3359" />
  
  <g
     id="layer1"
     inkscape:label="Layer 1"
     inkscape:groupmode="layer"
     transform="translate(-179.07,-3.1889969)">
    <path
       id="path3307"
       sodipodi:nodetypes="sssscssssccssssssscccccsssssssccccccccsssccccccccccccccccssssscs"
       style="fill:#d42f2f"
       inkscape:connector-curvature="0"
       d="m 542.07754,326.63528 c -1.77277,-1.24084 -6.7715,-6.59095 -8.18442,-12.18741 -3.38559,-13.41017 -5.54763,-23.83069 4.04274,-59.44478 4.49596,-16.69561 8.95491,-33.3687 9.90888,-37.05253 l 1.73422,-6.69785 2.61092,10.71656 c 1.43601,5.89412 5.72075,22.01183 9.52178,35.81745 8.45632,30.71367 7.57389,46.45094 5.80173,52.96126 -4.44145,16.31865 -15.31638,22.97069 -25.43569,15.88758 z m -280.66441,-4.28662 -0.17033,-93.9039 c -0.73958,-4.76941 -1.41405,-4.88675 -33.60664,-23.91803 -3.31515,-1.9598 -28.73845,-18.57985 -29.58234,-19.56925 -4.86401,-5.70095 -5.84694,-8.69703 -5.84694,-15.20707 0,-6.01736 12.51284,-58.71339 16.3837,-68.99325 1.61097,-4.279662 3.98731,-8.136822 7.48036,-6.028072 3.1699,1.91368 56.87922,34.946712 62.81117,38.791282 2.0569,1.33277 3.17377,8.42832 3.43406,13.06296 l 0.47311,8.42671 17.80669,0 17.8067,0 0,-8.03743 0,-8.03742 -11.06926,-1.33957 c -12.5147,-1.51449 -17.57598,-6.9004 -17.57598,-18.70229 0,-4.01522 1.57272,-9.71161 3.58363,-12.98043 3.45017,-5.60825 4.82469,-5.82526 36.89237,-5.82526 32.81386,0 33.35735,0.0919 36.67559,6.2006 1.85174,3.41055 3.3667,9.25161 3.3667,12.98044 0,11.42895 -5.17617,16.82608 -17.57597,18.32667 l -11.06926,1.33957 0,8.03743 0,8.03742 18.12256,0.75372 18.12257,0.75375 8.64894,13.67702 8.64894,13.67701 c 1.75838,-0.68704 132.1783,-58.09985 133.54399,-58.68927 0.18809,0.0697 8.77746,13.64862 14.59344,23.66406 7.69651,13.25397 12.12775,24.69766 6.58119,34.29568 -5.28703,9.14793 -11.53982,6.9446 -20.23769,-7.13134 l -7.71711,-12.48962 -13.44142,6.47388 -13.44142,6.47387 c -1.92203,3.06736 -71.40637,139.44931 -75.27894,145.98909 l -75.50347,0 z m 171.4552,-79.12576 24.96189,-49.58822 -35.68306,16.30177 -31.9545,13.39571 -21.02273,-29.55629 -87.35653,-0.26577 -0.0906,91.70165 65.9343,-0.25989 64.18925,0 z M 260.60795,178.44127 c 0.35453,-2.57867 0.26161,-8.15128 -0.20651,-12.38353 -0.77477,-7.00488 -2.30929,-8.62388 -17.1099,-18.05205 -8.94206,-5.69639 -17.39327,-10.37176 -18.78064,-10.38918 -2.6995,-0.0343 -6.94198,13.70542 -5.66129,19.11113 0.98718,4.1674 34.94601,25.90702 39.35743,26.26147 0.9652,0.0774 2.04498,-1.9689 2.39957,-4.54757 z" />
  </g>

</svg>
