<?xml version="1.0" encoding="UTF-8" standalone="no"?>
<svg
   xmlns:dc="http://purl.org/dc/elements/1.1/"
   xmlns:cc="http://creativecommons.org/ns#"
   xmlns:rdf="http://www.w3.org/1999/02/22-rdf-syntax-ns#"
   xmlns:svg="http://www.w3.org/2000/svg"
   xmlns="http://www.w3.org/2000/svg"
   xmlns:sodipodi="http://sodipodi.sourceforge.net/DTD/sodipodi-0.dtd"
   xmlns:inkscape="http://www.inkscape.org/namespaces/inkscape"
   viewBox="0 0 400 400"
   height="400"
   width="400"
   version="1.1"
   id="svg3664"
   inkscape:version="0.91 r13725"
   sodipodi:docname="tir.svg">

  <defs
     id="defs3668" />
  <g
     transform="translate(-29.78769,-3.5105475)"
     id="g3674">

    <path
       id="path3676"
       d="m 208.5,385.37059 c -5.32892,-0.57318 -24.22766,-4.22591 -28,-5.41182 -1.65,-0.51871 -5.025,-1.57981 -7.5,-2.35801 -19.34194,-6.08155 -41.35447,-17.92959 -57.5,-30.94882 C 109.0546,341.45458 93.534603,325.93298 88.35086,319.5 72.366019,299.66295 59.337855,273.12769 53.650505,248.82366 49.819693,232.45326 49.500265,229.21797 49.521164,207 49.53945,187.55982 49.851019,183.00409 51.812252,173.5 57.978707,143.6175 70.40162,116.7559 88.348057,94.5 93.545422,88.054597 109.06702,72.534603 115.5,67.35086 c 23.27141,-18.752269 53.34596,-32.253461 83,-37.260704 23.46998,-3.963032 56.85265,-2.242189 77,3.969273 9.54818,2.943721 12.76605,4.058848 20,6.930844 14.83342,5.889108 32.313,16.1274 45,26.357784 6.4454,5.197365 21.9654,20.718961 27.14914,27.151943 15.98484,19.83705 29.013,46.37231 34.70036,70.67634 3.83614,16.39317 4.15008,19.58443 4.11447,41.82366 -0.031,19.37125 -0.35071,24.02961 -2.29906,33.5 -1.24467,6.05 -2.68743,12.35 -3.20614,14 -0.51871,1.65 -1.57981,5.025 -2.35801,7.5 -6.02816,19.17214 -18.02347,41.45627 -30.95162,57.5 -5.18875,6.4392 -20.70994,21.96039 -27.14914,27.14914 -12.38252,9.97793 -30.68053,20.7081 -45,26.38856 -13.16565,5.22274 -19.03304,6.93559 -37.5,10.94727 -5.4698,1.18823 -41.8637,2.20699 -49.5,1.38562 z m 36.25658,-53.84683 c 16.83754,-2.55108 25.55642,-5.2959 40.74342,-12.82656 26.82928,-13.30364 47.89746,-36.47285 59.28497,-65.1972 12.05728,-30.41379 12.05728,-62.58621 0,-93 C 331.86487,127.90979 307.09021,103.13513 274.5,90.215028 253.71573,81.975288 232.04669,79.324305 211.24342,82.47624 194.37294,85.03231 185.33641,87.871064 170.5,95.275457 123.48066,118.74135 95.500417,172.49539 103.45048,224.08713 c 5.03509,32.67504 19.73646,59.3321 43.69619,79.2315 27.58902,22.91367 63.68788,33.34471 97.60991,28.20513 z M 211,310.04246 c -1.375,-0.43981 -4.41894,-1.37844 -6.76431,-2.08584 -7.51002,-2.26514 -7.53915,-3.18725 -0.476,-15.06479 1.50717,-2.5345 6.48149,-11.1657 11.05404,-19.18045 4.57254,-8.01474 8.93845,-15.09074 9.70201,-15.72444 0.76356,-0.6337 2.19738,-0.88262 3.18627,-0.55316 1.6778,0.55897 29.4261,41.21833 30.10916,44.1187 0.5723,2.43007 -3.76369,4.52074 -16.60996,8.00878 -5.70054,1.54782 -25.86224,1.86906 -30.20121,0.4812 z m -61.26572,-34.52854 c -11.34934,-11.08078 -17.2118,-22.16522 -20.2472,-38.28238 -1.869,-9.92388 -2.55206,-9.65363 21.07867,-8.33956 31.80869,1.76883 33.3655,1.98593 34.05914,4.74961 0.40603,1.61775 -0.34165,3.82935 -2.40159,7.10375 -1.64514,2.61506 -4.11212,6.77966 -5.48217,9.25466 -7.77064,14.03769 -17.07056,29.58838 -18.07852,30.22968 -2.16642,1.37835 -3.29947,0.7799 -8.92833,-4.71576 z M 295.2,279.8 c -0.66,-0.66 -1.2,-1.56766 -1.2,-2.01702 0,-0.44936 -1.96284,-4.07186 -4.36186,-8.05 C 280.46015,254.51373 270,235.76368 270,234.53117 c 0,-2.6656 3.01711,-3.27158 22,-4.41871 10.725,-0.6481 22.07271,-1.3801 25.21712,-1.62665 3.14442,-0.24655 6.40692,-0.18357 7.25,0.13995 2.46705,0.94669 1.87388,9.15725 -1.37509,19.03406 -3.86483,11.74899 -6.86516,16.82385 -15.26272,25.81588 -7.03748,7.53565 -9.95631,8.9973 -12.62931,6.3243 z m -75.7,-48.02153 c -22.38551,-7.93669 -23.52493,-38.55555 -1.81453,-48.76065 5.70621,-2.68223 15.59509,-2.49586 21.59106,0.40694 19.92265,9.64502 19.47739,37.94977 -0.74652,47.45613 -4.95701,2.33007 -13.81168,2.74771 -19.03001,0.89758 z m -90.28407,-47.96254 c -1.75534,-1.75534 -1.52327,-4.21071 1.25367,-13.26433 3.33566,-10.87517 8.58468,-19.40139 17.36263,-28.20288 7.03963,-7.05851 10.8042,-9.30949 13.14739,-7.86132 0.60131,0.37163 6.05226,10.5858 12.11322,22.69814 7.45389,14.89598 10.92079,22.87869 10.71355,24.66845 L 183.5,184.5 l -26.53407,0.26593 c -19.79931,0.19843 -26.8427,-0.0427 -27.75,-0.95 z M 272.2,183.8 c -0.66,-0.66 -1.2,-1.85334 -1.2,-2.65186 0,-1.89505 20.69307,-44.11721 22.73972,-46.39814 0.86364,-0.9625 2.16708,-1.75 2.89652,-1.75 2.08518,0 15.21649,12.89288 19.38853,19.03647 4.81942,7.09691 7.52061,12.93862 9.44383,20.42363 1.84479,7.17978 1.91994,9.75136 0.3314,11.3399 -1.70814,1.70814 -51.89186,1.70814 -53.6,0 z m -48.38629,-28.55 c -0.82295,-0.9625 -5.1008,-8.05 -9.50635,-15.75 -4.40554,-7.7 -9.92141,-17.27213 -12.2575,-21.27139 -2.33608,-3.99927 -3.9895,-7.94352 -3.67427,-8.76501 2.02713,-5.28261 29.85226,-8.54741 42.82562,-5.02486 12.14994,3.29897 16.79879,5.40264 16.79879,7.60169 0,1.24426 -27.90954,43.19115 -29.40483,44.19426 -1.75908,1.18007 -3.18093,0.88725 -4.78146,-0.98469 z"
       style="fill:rgb(212, 47, 47)"
       inkscape:connector-curvature="0" />
  </g>
</svg>
