<?xml version="1.0" encoding="UTF-8" standalone="no"?>
<!-- Created with Inkscape (http://www.inkscape.org/) -->

<svg
   xmlns:dc="http://purl.org/dc/elements/1.1/"
   xmlns:cc="http://creativecommons.org/ns#"
   xmlns:rdf="http://www.w3.org/1999/02/22-rdf-syntax-ns#"
   xmlns:svg="http://www.w3.org/2000/svg"
   xmlns="http://www.w3.org/2000/svg"
   xmlns:sodipodi="http://sodipodi.sourceforge.net/DTD/sodipodi-0.dtd"
   xmlns:inkscape="http://www.inkscape.org/namespaces/inkscape"
   width="500"
   height="61.8"
   id="svg2"
   sodipodi:version="0.32"
   inkscape:version="0.91 r13725"
   version="1.0"
   sodipodi:docname="Brembo_logo.svg"
   inkscape:output_extension="org.inkscape.output.svg.inkscape">
  <defs
     id="defs4">
    <inkscape:perspective
       sodipodi:type="inkscape:persp3d"
       inkscape:vp_x="0 : 526.18109 : 1"
       inkscape:vp_y="0 : 1000 : 0"
       inkscape:vp_z="744.09448 : 526.18109 : 1"
       inkscape:persp3d-origin="372.04724 : 350.78739 : 1"
       id="perspective10" />
    <inkscape:perspective
       id="perspective2464"
       inkscape:persp3d-origin="372.04724 : 350.78739 : 1"
       inkscape:vp_z="744.09448 : 526.18109 : 1"
       inkscape:vp_y="0 : 1000 : 0"
       inkscape:vp_x="0 : 526.18109 : 1"
       sodipodi:type="inkscape:persp3d" />
  </defs>
  <sodipodi:namedview
     id="base"
     pagecolor="#ffffff"
     bordercolor="#666666"
     borderopacity="1.0"
     gridtolerance="10000"
     guidetolerance="10"
     objecttolerance="10"
     inkscape:pageopacity="0.0"
     inkscape:pageshadow="2"
     inkscape:zoom="1.979899"
     inkscape:cx="238.28737"
     inkscape:cy="14.139503"
     inkscape:document-units="px"
     inkscape:current-layer="layer1"
     showgrid="false"
     inkscape:window-width="1304"
     inkscape:window-height="746"
     inkscape:window-x="54"
     inkscape:window-y="-8"
     inkscape:window-maximized="1" />
  <metadata
     id="metadata7">
    <rdf:RDF>
      <cc:Work
         rdf:about="">
        <dc:format>image/svg+xml</dc:format>
        <dc:type
           rdf:resource="http://purl.org/dc/dcmitype/StillImage" />
      </cc:Work>
    </rdf:RDF>
  </metadata>
  <g
     inkscape:label="Layer 1"
     inkscape:groupmode="layer"
     id="layer1"
     transform="translate(-34.50057,-25.810911)">
    <g
       id="g3272"
       transform="matrix(2.1392217,0,0,1.6096068,-42.0342,-169.94547)">
      <path
         d="m 64.374753,126.01463 c -1.762011,0.0607 -3.474572,0.48833 -5.089098,1.40435 l 2.103829,4.6418 c 0.930024,-0.48832 2.006663,-0.79367 2.985269,-0.79367 0.342686,0 0.635921,0.0606 0.978606,0.12128 4.012458,0.36705 7.242378,5.5589 6.949143,10.50495 -0.342685,5.43547 -3.817257,8.85592 -7.927749,9.10062 -0.244652,0 -0.538754,0 -0.783405,0 -2.691167,-0.73302 -4.941613,-2.13737 -6.262905,-5.31419 l -4.404594,-9.52723 c -0.587337,2.19909 -0.782538,4.27583 -0.63592,6.53556 0.685371,7.20687 5.089098,12.70296 10.863566,13.55835 0.39127,0.0606 0.83199,0.0606 1.223258,0.0606 6.704492,-0.12235 12.086825,-6.77917 12.184858,-15.08505 -0.09803,-8.24523 -5.138548,-14.59672 -11.548937,-15.2074 -0.195201,0 -0.439853,0 -0.635921,0 z m 0,34.68955 c -8.612252,0 -15.708013,-8.7942 -15.708013,-19.48215 0,-5.25247 1.66311,-10.01664 4.403726,-13.55835 l 7.487897,16.12342 c 0.341818,0.73194 0.831121,1.40434 1.418458,1.95439 0.685371,0.48832 1.46791,0.8543 2.299898,0.8543 0.04946,0 0.09803,0 0.09803,0 3.033852,0.12235 5.137681,-3.96941 4.110492,-7.32814 -0.587337,-2.13738 -2.299897,-3.54172 -4.110492,-3.54172 -0.244652,0 -0.489303,0 -0.733955,0.0606 -1.32129,0.183 -2.642583,1.58733 -3.22992,3.05339 L 54.489788,126.0146 c 2.691167,-2.74805 6.165738,-4.3971 9.884961,-4.3971 8.661704,0 15.708014,8.7942 15.708014,19.6045 0,10.68795 -7.04631,19.48215 -15.708014,19.48215"
         style="fill:#ff0000;fill-opacity:1;fill-rule:evenodd;stroke:none"
         id="path2472"
         inkscape:connector-curvature="0" />
      <path
         d="m 125.61174,144.57619 -3.95327,-7.45303 c -0.16162,0.71951 -0.24171,1.43744 -0.24171,2.2461 l 0,20.56188 7.09843,0 0,-9.69753 -2.90345,-5.65742 z m 42.03138,-1.52658 3.79164,7.27314 0,9.51766 -0.0816,0 0,0.0907 -7.98664,0 0,-25.05089 4.27652,8.16936 z m 0,-3.94938 3.79164,7.18242 0,-4.66889 c 0,-3.41133 5.16328,-3.68035 5.16328,0 l 0,18.22665 4.75994,0 0,0.0907 4.11346,0 0,-18.31738 c 0,-3.41133 5.1647,-3.68035 5.1647,0 l 0,18.31738 7.98664,0 0,-18.76628 c 0,-10.14643 -11.45647,-12.03118 -15.65146,-5.65742 -2.58163,-3.94938 -7.90653,-4.75804 -11.61808,-2.4228 l 0,-1.25756 -7.50178,0 3.79166,7.27315 z m 44.53291,8.79814 -8.71322,-16.78921 c 0,9.6068 0,19.21359 0,28.73125 l 7.09987,0 0,-1.16683 c 1.61335,0.89781 3.46841,1.43585 5.48508,1.43585 6.85816,0 12.50487,-6.28461 12.50487,-14.00666 0,-7.63132 -5.64671,-13.91593 -12.50487,-13.91593 -2.01667,0 -3.87173,0.53805 -5.48508,1.43585 l 0,-11.58228 -7.09987,0 c 0,3.23145 0,1.79401 0,5.02705 l 8.87484,16.97068 c 0.64505,-1.43743 2.09677,-2.51352 3.71011,-2.51352 2.25983,0 4.11489,2.06462 4.11489,4.57815 0,2.51352 -1.85506,4.57974 -4.11489,4.57974 -1.77496,0 -3.22668,-1.07768 -3.87173,-2.78414 z m 28.39659,0.26902 -5.8069,-11.13337 c -1.93659,2.42438 -3.0665,5.56669 -3.0665,9.06875 0,7.72205 5.64815,14.00666 12.58495,14.00666 6.85816,0 12.50487,-6.28461 12.50487,-14.00666 0,-7.63132 -5.64671,-13.91593 -12.50487,-13.91593 -3.1466,0 -5.96995,1.25597 -8.22834,3.41133 l 4.51679,8.52912 c 0.64648,-1.52658 2.09821,-2.60267 3.71155,-2.60267 2.25983,0 4.1149,2.06462 4.1149,4.57815 0,2.51352 -1.85507,4.57974 -4.1149,4.57974 -1.61334,0 -3.06507,-0.98853 -3.71155,-2.51512 z m -91.48585,4.4906 c 1.29154,-0.53963 2.17831,-1.88633 2.42146,-3.41292 l 8.22834,0 c -1.21001,5.65743 -5.40498,9.96656 -10.6498,10.77522 -0.48342,0 -1.04838,0.0891 -1.61334,0.0891 -6.85672,0 -12.50343,-6.28461 -12.50343,-14.00666 0,-3.05316 0.88677,-5.74657 2.33993,-8.08022 l 6.45338,12.3002 c 0.64505,1.61573 2.01668,2.69341 3.71012,2.69341 0.56496,0 1.12992,-0.0891 1.61334,-0.35817 z m 0,-8.9796 2.50155,0 c -0.16162,-1.70487 -1.12992,-3.05317 -2.50155,-3.68035 -0.48342,-0.27062 -1.04838,-0.35976 -1.61334,-0.35976 -2.17687,0 -3.87174,1.70646 -4.03336,4.04011 l 5.6467,0 z m 0,-11.4024 c -0.48342,0 -1.04838,-0.0892 -1.61334,-0.0892 -3.38688,0 -6.615,1.61573 -8.8734,4.2184 l 5.96995,11.49313 0,-0.62878 15.40831,0 c 0,-0.4489 0.0816,-0.80706 0.0816,-1.16682 0,-7.00254 -4.84147,-12.92898 -10.97305,-13.82678 z m -23.47503,8.34923 -2.98498,-5.65583 c 0.80667,-1.07768 1.85506,-1.7956 2.98498,-2.15536 0.64505,-0.26902 1.3702,-0.35817 2.01668,-0.35817 l 5.72824,0 0,7.3623 -1.61478,0 c -1.85506,0 -3.22669,1.43584 -3.22669,3.5912 l 0,2.78414 -2.90345,-5.56828 z m -24.68647,7.27315 -8.794741,-16.78921 c 0,9.6068 0,19.21359 0,28.73125 l 7.099871,0 0,-1.16683 c 1.69487,0.89781 3.54993,1.43585 5.48509,1.43585 6.85814,0 12.58637,-6.28461 12.58637,-14.00666 0,-7.63132 -5.72823,-13.91593 -12.58637,-13.91593 -1.93516,0 -3.79022,0.53805 -5.48509,1.43585 l 0,-11.58228 -7.099871,0 c 0,3.23145 0,1.79401 0,5.02705 l 8.874831,16.97068 c 0.64506,-1.43743 2.09677,-2.51352 3.71013,-2.51352 2.25982,0 4.11488,2.06462 4.11488,4.57815 0,2.51352 -1.85506,4.57974 -4.11488,4.57974 -1.69345,0 -3.14518,-1.07768 -3.79022,-2.78414"
         style="fill:#000000;fill-opacity:1;fill-rule:evenodd;stroke:none"
         id="path2474"
         inkscape:connector-curvature="0" />
    </g>
  </g>
</svg>
