<?xml version="1.0" encoding="utf-8"?>
<!-- Generator: Adobe Illustrator 19.1.1, SVG Export Plug-In . SVG Version: 6.00 Build 0)  -->
<svg version="1.1" id="Layer_1" xmlns="http://www.w3.org/2000/svg" xmlns:xlink="http://www.w3.org/1999/xlink" x="0px" y="0px"
	 width="350px" height="92px" viewBox="0 0 350 92" enable-background="new 0 0 350 92" xml:space="preserve">
<path fill="#E53238" d="M171.268,30.443c3.258-2.415,7.38-3.946,11.969-3.946c10.355,0,18.745,7.393,18.745,16.522
	c0,0.326,0.019,0.8,0,1.126h-21.568L171.268,30.443z M178.845,38.231h9.384c-0.021-2.066-2.112-3.744-4.692-3.744
	C180.959,34.487,178.866,36.164,178.845,38.231"/>
<path fill="#E53238" d="M114.362,56.938l-0.011,2.263h-13.559l0.004-35.328l14.137,20.832c1.099,1.931,3.084,3.331,5.634,3.331
	c3.366,0,6.087-2.385,6.087-5.335s-2.722-5.344-6.087-5.344c-1.975,0-3.716,0.832-4.823,2.118l-0.114,0.095
	c-5.07-7.234-10.174-14.894-14.834-22.31l-0.004-3.731h13.559v14.713c2.363-1.217,4.795-1.569,7.465-1.558
	c9.462,0.034,17.859,6.649,17.899,16.073c0,0,0.653,8.824-8.509,13.961C122.405,61.66,114.362,56.938,114.362,56.938"/>
<path fill="#E53238" d="M275.807,56.938l-0.009,2.263h-13.559l0.002-35.328l14.137,20.832c1.101,1.931,3.091,3.331,5.641,3.331
	c3.359,0,6.081-2.385,6.081-5.335s-2.722-5.344-6.081-5.344c-1.983,0-3.718,0.832-4.825,2.118l-0.122,0.095
	c-5.068-7.234-10.172-14.894-14.83-22.31l-0.002-3.731h13.559v14.713c2.361-1.217,4.795-1.569,7.461-1.558
	c9.466,0.034,17.861,6.649,17.902,16.073c0,0,0.653,8.824-8.504,13.961C283.856,61.66,275.807,56.938,275.807,56.938"/>
<polygon fill="#E53238" points="204.854,33.969 204.854,59.186 217.501,59.186 217.501,52.684 "/>
<path fill="#E53238" d="M12.119,10.713l0.024,0.202l20.879,31.037c1.797,2.615,5.04,4.362,8.74,4.362
	c5.66,0,10.243-4.076,10.243-9.098c0-5.022-4.583-9.1-10.243-9.1c-3.471,0-6.613,1.573-8.468,3.916L17.17,7.041l-0.075-0.105
	c6.942-4.51,15.523-7.091,25.159-6.929c22.811,0.379,41.567,17.29,41.485,37.24C83.652,57.697,65.191,74.16,41.996,74.16
	C18.803,74.16,0,57.579,0,37.132C0,26.889,4.548,17.493,12.119,10.713 M30.811,10.978l5.667,8.529
	c12.166-2.432,25.633,4.333,25.753,18.147C61.66,50.338,49.272,57.257,37.394,54.88c0,0-9.163-1.444-13.705-9.426L11.784,28.43
	C3.662,51.098,25.376,65.146,42.253,65.146c17.193,0,31.111-12.321,31.111-27.493C73.946,21.164,54.673,3.283,30.811,10.978"/>
<path fill="#E53238" d="M315.594,45.348c0.964,1.899,3.127,3.221,5.647,3.221c3.415,0,6.182-2.426,6.182-5.424
	c0-2.994-2.767-5.424-6.182-5.424c-2.114,0-3.969,0.929-5.083,2.354l-6.506-9.955c3.2-2.2,7.21-3.512,11.589-3.512
	c10.408,0,18.84,7.401,18.84,16.537c0,9.129-8.431,16.536-18.84,16.536c-10.404,0-18.842-7.407-18.842-16.536
	c0-4.146,1.734-7.933,4.608-10.833L315.594,45.348z"/>
<path fill="#E53238" d="M225.811,27.016c6.392,0.019,9.717,4.461,9.717,4.461s3.939-5.095,10.707-4.716
	c11.733,0.663,11.769,10.713,11.769,10.713v21.712h-12.679v-18.61c-0.047-2.042-1.734-3.699-3.81-3.699
	c-2.084,0-3.769,1.657-3.769,3.737v18.572h-12.669v-18.61c-0.043-2.042-1.728-3.699-3.808-3.699c-2.08,0-3.769,1.657-3.769,3.737
	l0.011,5.798l-12.656-19.025H217.5l0.017,2.093C217.517,29.48,221.486,27.006,225.811,27.016"/>
<path fill="#E53238" d="M179.214,48.645c1.578,2.272,4.059,2.093,4.059,2.093c2.58,0,4.606-2.126,4.692-3.739h13.392
	c-1.977,7.26-9.283,12.545-18.121,12.545c-10.355,0-18.75-7.401-18.75-16.526c0-3.811,1.447-7.235,4.128-10.226L179.214,48.645z"/>
<path fill="#E53238" d="M143.036,33.865l12.81,18.431v6.931h-13.579v-25.03c0,0-0.013-0.438,0.281-0.533
	C142.847,33.564,143.036,33.865,143.036,33.865"/>
<path fill="#E53238" d="M164.489,27.523v10.182h-3.748c0,0-2.419-0.265-3.655,0.758c-1.193,0.994-1.14,1.965-1.254,3.125
	l0.006,4.169L144.812,30.03c0,0,1.629-2.129,5.574-2.506H164.489z"/>
<path fill="#E53238" d="M345.344,51.18c-2.571,0-4.645,1.838-4.645,4.123c0,2.282,2.073,4.125,4.645,4.125
	c2.58,0,4.656-1.844,4.656-4.125C350,53.018,347.924,51.18,345.344,51.18 M345.361,51.542c2.389,0,4.162,1.64,4.162,3.748
	c0,2.085-1.788,3.773-4.162,3.773c-2.376,0-4.19-1.674-4.19-3.76C341.172,53.178,342.964,51.542,345.361,51.542 M344.134,53.225
	h1.511c0.659,0,1.395,0.225,1.395,0.971c0,0.851-0.91,0.93-1.743,0.93h-1.163V53.225z M343.655,57.739h0.479v-2.245h1.425
	l1.657,2.245h0.519l-1.644-2.242c0.786-0.107,1.423-0.493,1.423-1.286c0-0.882-0.552-1.348-1.79-1.348h-2.069V57.739z"/>
<g>
	<path fill="#F6F6F6" d="M110.836,80.939c0,1.776-0.41,3.203-1.229,4.28c-0.818,1.078-1.918,1.617-3.298,1.617
		c-1.473,0-2.611-0.52-3.416-1.558l-0.098,1.343h-1.832v-16.5h1.994v6.155c0.805-0.995,1.915-1.493,3.33-1.493
		c1.416,0,2.527,0.533,3.336,1.601s1.213,2.528,1.213,4.383V80.939z M108.842,80.714c0-1.354-0.263-2.399-0.787-3.137
		s-1.279-1.106-2.264-1.106c-1.314,0-2.26,0.608-2.834,1.826v5.027c0.61,1.218,1.563,1.826,2.856,1.826
		c0.955,0,1.699-0.369,2.23-1.106C108.577,83.307,108.842,82.196,108.842,80.714z"/>
	<path fill="#F6F6F6" d="M117.044,83.711l2.716-8.712h2.134l-4.688,13.417c-0.727,1.934-1.88,2.9-3.46,2.9l-0.377-0.032l-0.744-0.14
		v-1.611l0.539,0.043c0.675,0,1.201-0.136,1.579-0.408c0.377-0.272,0.688-0.77,0.932-1.493l0.442-1.182l-4.16-11.494h2.177
		L117.044,83.711z"/>
	<path fill="#F6F6F6" d="M138.115,82.529h-6.575l-1.477,4.093h-2.134l5.992-15.641h1.811l6.004,15.641h-2.123L138.115,82.529z
		 M132.165,80.843h5.335l-2.673-7.315L132.165,80.843z"/>
	<path fill="#F6F6F6" d="M154.713,70.981v10.635c-0.008,1.476-0.473,2.682-1.396,3.62c-0.923,0.938-2.175,1.465-3.756,1.579
		l-0.55,0.021c-1.717,0-3.086-0.462-4.106-1.386c-1.02-0.924-1.537-2.195-1.552-3.813V70.981h2.048v10.592
		c0,1.132,0.313,2.011,0.938,2.637c0.625,0.627,1.517,0.94,2.673,0.94c1.171,0,2.067-0.312,2.689-0.935
		c0.621-0.623,0.933-1.5,0.933-2.632V70.981H154.713z"/>
	<path fill="#F6F6F6" d="M168.821,72.668h-5.044v13.954h-2.059V72.668h-5.033v-1.687h12.136V72.668z"/>
	<path fill="#F6F6F6" d="M182.918,79.307c0,1.532-0.259,2.87-0.776,4.013c-0.517,1.142-1.25,2.014-2.198,2.615
		s-2.055,0.902-3.319,0.902c-1.236,0-2.332-0.303-3.287-0.908c-0.956-0.604-1.698-1.468-2.226-2.588
		c-0.528-1.121-0.8-2.419-0.814-3.895v-1.128c0-1.504,0.263-2.832,0.787-3.985s1.267-2.035,2.226-2.648
		c0.959-0.611,2.057-0.918,3.292-0.918c1.257,0,2.365,0.303,3.324,0.908c0.96,0.604,1.698,1.482,2.215,2.631
		c0.518,1.15,0.776,2.487,0.776,4.013V79.307z M180.859,78.297c0-1.854-0.374-3.278-1.121-4.271
		c-0.747-0.991-1.793-1.487-3.136-1.487c-1.308,0-2.337,0.496-3.087,1.487c-0.751,0.992-1.138,2.369-1.159,4.131v1.149
		c0,1.798,0.379,3.21,1.138,4.237c0.758,1.028,1.801,1.542,3.13,1.542c1.336,0,2.371-0.485,3.104-1.456
		c0.733-0.97,1.11-2.361,1.132-4.173V78.297z"/>
	<path fill="#F6F6F6" d="M191.777,80.295h-3.687v6.327h-2.08V70.981h5.195c1.768,0,3.127,0.401,4.079,1.203s1.428,1.97,1.428,3.502
		c0,0.974-0.264,1.822-0.792,2.546s-1.263,1.264-2.204,1.622l3.687,6.639v0.129h-2.221L191.777,80.295z M188.091,78.608h3.18
		c1.027,0,1.845-0.266,2.452-0.796c0.606-0.531,0.91-1.241,0.91-2.132c0-0.968-0.289-1.71-0.867-2.227s-1.414-0.779-2.506-0.786
		h-3.169V78.608z"/>
	<path fill="#F6F6F6" d="M216.663,84.57c-0.531,0.759-1.273,1.327-2.226,1.702c-0.952,0.377-2.06,0.564-3.324,0.564
		c-1.279,0-2.415-0.299-3.406-0.896c-0.991-0.599-1.759-1.449-2.301-2.552c-0.543-1.103-0.821-2.381-0.836-3.835v-1.364
		c0-2.356,0.552-4.183,1.655-5.479c1.103-1.296,2.652-1.944,4.65-1.944c1.638,0,2.956,0.417,3.955,1.252
		c0.999,0.834,1.609,2.018,1.832,3.55h-2.069c-0.388-2.077-1.623-3.115-3.707-3.115c-1.387,0-2.438,0.485-3.152,1.457
		c-0.716,0.971-1.076,2.378-1.083,4.22v1.279c0,1.756,0.401,3.152,1.207,4.188c0.805,1.036,1.893,1.554,3.266,1.554
		c0.775,0,1.455-0.086,2.037-0.257c0.582-0.172,1.063-0.461,1.443-0.868v-3.505h-3.632v-1.687h5.69V84.57z"/>
	<path fill="#F6F6F6" d="M225.868,80.295h-3.687v6.327h-2.08V70.981h5.195c1.768,0,3.127,0.401,4.079,1.203s1.428,1.97,1.428,3.502
		c0,0.974-0.264,1.822-0.792,2.546s-1.263,1.264-2.204,1.622l3.687,6.639v0.129h-2.221L225.868,80.295z M222.182,78.608h3.18
		c1.027,0,1.845-0.266,2.452-0.796c0.606-0.531,0.91-1.241,0.91-2.132c0-0.968-0.289-1.71-0.867-2.227s-1.414-0.779-2.506-0.786
		h-3.169V78.608z"/>
	<path fill="#F6F6F6" d="M245.774,79.307c0,1.532-0.259,2.87-0.776,4.013c-0.517,1.142-1.25,2.014-2.198,2.615
		s-2.055,0.902-3.319,0.902c-1.236,0-2.332-0.303-3.287-0.908c-0.956-0.604-1.698-1.468-2.226-2.588
		c-0.528-1.121-0.8-2.419-0.814-3.895v-1.128c0-1.504,0.263-2.832,0.787-3.985s1.267-2.035,2.226-2.648
		c0.959-0.611,2.057-0.918,3.293-0.918c1.257,0,2.365,0.303,3.324,0.908c0.96,0.604,1.698,1.482,2.215,2.631
		c0.518,1.15,0.776,2.487,0.776,4.013V79.307z M243.716,78.297c0-1.854-0.374-3.278-1.121-4.271
		c-0.747-0.991-1.793-1.487-3.136-1.487c-1.309,0-2.338,0.496-3.088,1.487c-0.751,0.992-1.138,2.369-1.159,4.131v1.149
		c0,1.798,0.379,3.21,1.138,4.237c0.758,1.028,1.801,1.542,3.131,1.542c1.336,0,2.371-0.485,3.104-1.456
		c0.733-0.97,1.11-2.361,1.132-4.173V78.297z"/>
	<path fill="#F6F6F6" d="M259.926,70.981v10.635c-0.008,1.476-0.473,2.682-1.396,3.62c-0.923,0.938-2.175,1.465-3.756,1.579
		l-0.55,0.021c-1.717,0-3.086-0.462-4.106-1.386c-1.02-0.924-1.537-2.195-1.552-3.813V70.981h2.048v10.592
		c0,1.132,0.313,2.011,0.938,2.637c0.625,0.627,1.517,0.94,2.673,0.94c1.171,0,2.067-0.312,2.689-0.935
		c0.621-0.623,0.933-1.5,0.933-2.632V70.981H259.926z"/>
	<path fill="#F6F6F6" d="M265.261,80.499v6.123h-2.069V70.981h5.788c1.717,0,3.063,0.437,4.036,1.311s1.46,2.03,1.46,3.47
		c0,1.519-0.476,2.688-1.428,3.507c-0.952,0.82-2.315,1.23-4.09,1.23H265.261z M265.261,78.813h3.719c1.106,0,1.954-0.26,2.543-0.78
		c0.59-0.52,0.884-1.271,0.884-2.254c0-0.933-0.294-1.679-0.884-2.238c-0.589-0.56-1.397-0.851-2.425-0.872h-3.837V78.813z"/>
</g>
</svg>
