<svg xmlns="http://www.w3.org/2000/svg" width="400" height="400" viewBox="0 0 400 400"><path d="M23.277 349.394c-1.51-1.669-1.655-8.619-1.655-79.345 0-88.302.81-80.826-8.757-80.826-8.062 0-8.246-.431-8.228-19.322.009-8.898.441-16.853.962-17.678.74-1.172 3.69-1.573 13.485-1.832l12.538-.332v-11.418c0-15.466-.05-15.418 15.89-15.418 16.147 0 16.006-.13 16.35 15l.26 11.5h34l.3-5.75.3-5.75h39.8l.3 5.75.3 5.75 23.25.268 23.25.268v-12.036h39.9l.3 5.75.3 5.75 16.367.275c11.221.189 16.802-.086 17.75-.873 1.029-.853 1.383-4.054 1.383-12.49 0-10.19.196-11.447 1.934-12.377 1.064-.57 6.864-1.035 12.89-1.035 15.08 0 15.075-.005 15.415 15l.261 11.5 12.174.5c11.15.458 12.39.704 14.75 2.924 2.536 2.387 2.576 2.647 2.576 16.795 0 13.925-.076 14.448-2.455 16.826-1.936 1.937-3.486 2.455-7.345 2.455-8.884 0-8.2-6.768-8.2 81.173 0 73.827-.087 77.595-1.829 79.172-1.683 1.523-12.788 1.655-139.345 1.655-131.953 0-137.583-.074-139.171-1.83zm122.373-35.921a453.51 453.51 0 0 1 7.359-8.25 6806.8 6806.8 0 0 0 13.618-14.946c5.222-5.745 11.405-12.495 13.74-15 6.215-6.67 5.229-11.054-2.488-11.054-1.581 0-3.698-.602-4.703-1.337-1.907-1.395-1.28-2.312 17.746-25.98 5.509-6.852 10.7-14.029 10.7-14.793 0-.411-.707-1.455-1.571-2.319-1.355-1.355-5.48-1.571-29.89-1.571-25.55 0-28.51.17-30.294 1.75-1.752 1.551-3.43 6.586-10.327 31l-1.836 6.5c-.504 1.787-1.865 6.4-3.023 10.25-3.217 10.691-2.108 12.437 7.941 12.501 2.475.016 5.129.427 5.897.914 1.594 1.01 1.387 2.495-3.016 21.585-2.927 12.69-2.555 14.5 2.984 14.5 3.297 0 4.448-.603 7.163-3.75zm181.639-72.917c-.367-.367-.667-7.279-.667-15.36v-14.692l5.219-3.893c3.669-2.737 6.12-5.652 8.25-9.815 3.008-5.877 3.033-6.064 3.357-24.583.415-23.763-.589-28.077-8.285-35.61-4.834-4.733-13.773-9.38-18.04-9.38-.83 0-1.901-1.775-2.567-4.25-2.437-9.06-7.856-15.874-15.427-19.4-4.447-2.07-6.489-2.332-18.257-2.34-7.701-.007-13.25-.409-13.25-.961 0-2.793 32.028-50.116 38.84-57.389 4.066-4.34 8.028-5.98 14.307-5.923 7.609.069 11.357 2.757 20.173 14.462 7.915 10.51 26.123 37.507 32.914 48.8 15.703 26.117 25.766 51.504 25.766 65 0 4.558-2.449 17.278-4.534 23.557-6.603 19.88-24.287 38.744-43.966 46.901-9.245 3.833-22.222 6.487-23.833 4.876z" fill="#d42f2f"/></svg>