<svg xmlns="http://www.w3.org/2000/svg" viewBox="0 0 400 400" height="400" width="400"><path d="M56.144 351.372c-11.565-2.955-22.278-11.435-27.229-21.554-9.864-20.162-2.669-42.98 17.066-54.117l5.663-3.196V128.887l-5.663-3.196c-19.735-11.137-26.93-33.955-17.066-54.117 5.252-10.735 16.742-19.352 29.189-21.891 17.273-3.523 35.798 6.188 43.9 23.013 4.294 8.918 4.945 21.128 1.618 30.336-3.823 10.577-10.826 18.534-20.728 23.551l-4.25 2.154v58.96h112v-58.991l-4.626-2.174c-6.652-3.127-15.668-11.873-18.766-18.204-7.857-16.059-4.704-34.666 8.031-47.401 9.075-9.076 23.132-13.71 34.474-11.368 9.432 1.948 16.376 5.496 22.248 11.368 12.416 12.416 15.769 30.619 8.556 46.452-2.75 6.037-12.99 16.253-19.167 19.121l-4.75 2.206v59.101l45.75-.305 45.75-.306 5-2.657c5.658-3.006 9.257-6.523 12.63-12.343 2.167-3.741 2.34-5.273 2.683-23.688l.366-19.687-5.256-2.664c-6.444-3.265-14.677-11.42-17.628-17.46-3.58-7.332-4.535-12.187-4.144-21.087.302-6.897.932-9.586 3.494-14.914 8.086-16.82 26.62-26.537 43.895-23.013 12.768 2.604 24.09 11.265 29.432 22.513 9.484 19.97 2.199 42.486-17.31 53.495l-5.662 3.196v16.855c0 23.8-1.73 31.338-10.091 43.956-6.31 9.522-15.11 16.427-27.12 21.279-5.102 2.062-6.994 2.15-53.539 2.481l-48.25.344v58.884l4.626 2.174c6.652 3.127 15.668 11.874 18.766 18.204 7.857 16.06 4.704 34.666-8.031 47.402-9.075 9.075-23.132 13.71-34.474 11.368-9.432-1.948-16.376-5.497-22.248-11.368-12.416-12.416-15.769-30.62-8.556-46.453 2.75-6.036 12.99-16.252 19.167-19.12l4.75-2.207v-58.99h-112v58.967l5.166 2.618c6.365 3.225 14.603 11.405 17.539 17.415 3.58 7.331 4.535 12.186 4.144 21.087-.586 13.373-6.583 23.819-18.302 31.88-8.342 5.74-21.475 8.154-31.047 5.709z" fill="#d42f2f"/></svg>