<svg xmlns="http://www.w3.org/2000/svg" viewBox="0 0 400 400" height="400" width="400"><path d="M80.199 392.893c-4.062-4.061-12.68-19.43-12.68-22.613 0-1.278 2.125-4.226 5.233-7.26 4.971-4.85 5.232-5.361 5.2-10.184-.021-3.388-.765-6.32-2.233-8.807-1.21-2.051-2.19-4.041-2.178-4.423.029-.893 3.926 4.07 3.955 5.038.042 1.372 7.213 11.975 10.738 15.876 4.686 5.187 6.564 5.05 17.285-1.266 4.41-2.598 15.07-6.457 30-10.863 17.27-5.095 18.739-6.11 27.508-18.992 13.402-19.689 23.17-31.328 45.9-54.698l10.91-11.215 3.275 2.875c4.326 3.799 7.222 4.666 9.148 2.74 1.98-1.98 1.086-5.37-2.396-9.094l-2.717-2.907 6.457-6.093c14.534-13.715 44.356-33.857 69.716-47.086 8.897-4.641 12.978-9.235 16.004-18.011 3.452-10.015 7.543-18.487 14.393-29.807 3.391-5.604 6.997-12.365 8.012-15.025 1.816-4.756 1.814-4.89-.162-8.087-2.938-4.752-17.098-17.416-22.972-20.543-1.66-.884-4.499-1.1-9-.686-4.368.401-6.073.282-5.076-.357.825-.528 4.036-.968 7.137-.976 4.814-.013 6.346.483 10.5 3.402 2.674 1.88 6.713 4.692 8.976 6.25 2.262 1.558 4.512 3.57 5 4.473.487.902 4.15 5.622 8.137 10.49 7.901 9.644 8.362 11.17 5.849 19.37-1.932 6.301-17.18 44.24-20.087 49.975-4.223 8.335-7.136 10.858-19.202 16.636-17.345 8.307-38.99 23.11-61.81 42.276-4.95 4.157-10.35 8.688-12 10.069-7.622 6.378-22.225 21.698-31.497 33.044-2.472 3.025-5.066 6.101-5.764 6.836-.698.735-2.498 2.985-3.999 5-1.5 2.015-2.992 3.889-3.313 4.164-.321.275-4.981 6.35-10.355 13.5-15.098 20.088-15.988 20.854-27.822 23.98-3.163.836-8.113 2.16-11 2.945-5.049 1.37-12.22 3.294-28.232 7.575-10.288 2.75-14.043 2.6-18.418-.737-4.684-3.573-11.833-11.038-13.898-14.513-2.032-3.42-3.202-3.512-3.202-.25 0 1.714-1.731 4.191-5.5 7.87-3.074 3.001-5.5 6.26-5.5 7.387 0 2.643 8.847 19.247 10.617 19.926.755.29 4.016-1.767 7.262-4.579 6.415-5.557 7.11-5.802 10.406-3.675 1.91 1.233 4.002 1.24 15.215.056 30.571-3.228 34.91-3.491 38.643-2.34 5.409 1.67 8.341.471 12-4.904 3.02-4.438 20.464-26.308 24.523-30.746 1.009-1.103 4.306-4.928 7.327-8.5 3.022-3.573 5.722-6.72 6-6.995.279-.275 4.305-4.775 8.948-10 10.674-12.014 38.514-39.85 47.059-47.053 3.575-3.013 10.1-8.138 14.5-11.388s10.25-7.581 13-9.625c8.283-6.157 55.732-37.347 59.612-39.186 4.836-2.291 5.33-3.11 6.79-11.248.69-3.85 2.125-11.5 3.188-17 1.062-5.5 2.407-12.7 2.988-16 .58-3.3 1.53-7.899 2.11-10.22.58-2.32 1.13-7.27 1.223-11 .155-6.255 1.645-11.247 3.374-11.304 1.228-.04 8.215-6.723 8.215-7.858 0-.594-3.44-4.463-7.643-8.599-9.622-9.467-10.622-9.547-19.357-1.546-3.575 3.274-6.913 5.97-7.417 5.99-.504.02-.73-.121-.5-.314.23-.194 3.5-3.119 7.268-6.5 4.932-4.427 7.632-6.15 9.641-6.15 3.21 0 9.427 5.2 18.301 15.308 5.52 6.287 5.648 6.565 4.538 9.831-.629 1.85-2.358 4.937-3.843 6.862-1.484 1.925-3.21 4.475-3.835 5.668-2.012 3.84-5.094 16.935-8.198 34.832-3.477 20.047-5.956 30.765-7.812 33.769-2.08 3.365-4.565 5.348-20.336 16.23-23.208 16.015-44.024 31.855-71.807 54.64-15.406 12.635-31.795 28.601-46.049 44.86-4.098 4.676-7.676 8.726-7.951 9-.997.998-7.595 8.687-11.615 13.537-11.96 14.43-19.68 23.52-24.103 28.38l-4.929 5.418-31.927.416c-29.33.381-32.144.569-34.604 2.309-9.93 7.023-14.023 7.54-19.142 2.42zm-8.285-57.039c-.78-3.108-.034-9.897 1.52-13.829 1.798-4.552 2.168-2.528.444 2.428-.993 2.855-1.354 6.17-1.003 9.21.594 5.137.075 6.319-.96 2.191zm3.626-17.829c-.034-1.412 11.933-23.922 14.166-26.646 1.289-1.573 1.004-.655-.786 2.535-1.543 2.75-5.18 9.5-8.082 15-2.902 5.5-5.286 9.6-5.298 9.111zm15.979-29.846c0-1 33.375-42.303 36.981-45.765.287-.275 3.435-3.875 6.997-8 9.14-10.585 27.382-28.99 31.953-32.237l3.851-2.737 2.66 3.487c3.165 4.15 6.558 4.7 6.558 1.063 0-1.332-1.155-3.795-2.566-5.472l-2.566-3.05 3.717-3.277c22.791-20.092 61.216-49.55 71.415-54.748 4.245-2.164.923.423-9 7.008-11.897 7.894-42.658 31.244-46 34.917-.275.303-4.438 3.86-9.25 7.906-4.813 4.046-8.75 7.776-8.75 8.288 0 .513.939 2.203 2.087 3.756 2.45 3.314 2.22 7.421-.443 7.93-1.084.206-3.246-.994-5.2-2.888-3.226-3.127-3.432-3.185-5.821-1.62-2.87 1.881-19.16 17.852-25.676 25.174-13.11 14.731-28.875 33.428-40.895 48.5-9.852 12.355-10.052 12.589-10.052 11.765zm-44.924-39.354c-1.692-1.424-3.076-3.085-3.076-3.691 0-.607.626-.246 1.39.8 1.35 1.844 1.513 1.819 5.368-.853 2.186-1.515 4.997-3.842 6.246-5.172 1.615-1.719 2.738-2.171 3.884-1.565 1.54.814 45.218-.47 49.809-1.466 1.256-.272 5.537-4.65 9.996-10.22 8.735-10.913 31.387-34.095 44.307-45.344 4.675-4.07 8.725-7.632 9-7.914.275-.283 2.975-2.526 6-4.986s5.725-4.71 6-5.001c1.082-1.145 25.822-20.773 31-24.596 11.62-8.578 23.46-16.74 31-21.37 3.025-1.857 9.02-5.55 13.323-8.205 4.303-2.656 8.047-4.828 8.32-4.828.273 0 2.377-1.27 4.677-2.82 2.299-1.551 5.755-3.435 7.68-4.187 6.833-2.67 8-3.887 8.005-8.358.003-2.275 1.378-7.96 3.057-12.635 1.678-4.675 4.63-13.225 6.56-19 1.93-5.775 4.196-11.56 5.035-12.855 1.026-1.584 1.317-3.471.886-5.765-.52-2.777-.287-3.546 1.26-4.145 3.942-1.527 11.197-8.532 11.197-10.812 0-1.324-2.115-4.576-5.1-7.843-5.704-6.24-9.488-7.288-12.66-3.505-.957 1.141-2.64 2.536-3.74 3.1-1.1.563-.03-.821 2.376-3.076 2.407-2.255 5.09-4.1 5.962-4.1 2.556 0 15.162 13.5 15.162 16.238 0 1.3.507 2.87 1.126 3.49 1.301 1.3.484 5.518-1.444 7.453-2.835 2.844-4.664 6.782-8.513 18.32-7.336 21.994-14.564 40.648-17.268 44.562-1.075 1.556-5.236 4.102-10.586 6.479-10.215 4.537-16.742 8.379-35.148 20.688-39.9 26.685-76.653 58.993-122.22 107.44l-11.447 12.171-7.918-1c-11.05-1.396-38.259 1.812-47.823 5.64-5.38 2.152-8.156 1.898-11.683-1.07zm-5.538-9.95c-.962-2.52-1.542-4.79-1.289-5.044.254-.254 1.25 1.6 2.212 4.121.963 2.52 1.543 4.79 1.289 5.045-.254.254-1.25-1.601-2.212-4.122zm-2.658-8.07c-.8-2.726.559-5.085 5.382-9.336 4.04-3.561 4.092-3.815 2.309-11.055-.339-1.375.292-.475 1.402 2 2.868 6.395 3.391 7.184 6.104 9.196 3.07 2.277 7.032 1.314 15.446-3.753 3.268-1.968 11.125-5.137 17.46-7.044 18.323-5.514 20.753-7.006 28.56-17.53 6.303-8.499 31.065-34.369 43.492-45.438 3.045-2.712 6.763-6.027 8.262-7.366l2.726-2.435 3.286 3.185c3.427 3.321 6.448 4.027 8.49 1.985 1.923-1.922 1.396-5.415-1.3-8.618-1.374-1.634-2.5-3.207-2.5-3.496 0-.615 16.664-13.039 22.5-16.776l9.809-6.285c9.286-5.952 25.368-15.444 31.002-18.298 10.131-5.131 14.744-8.537 16.535-12.207 7.118-14.588 19.412-34.184 23.287-37.12.363-.275 2.208-2.852 4.099-5.727l3.439-5.227 2.601 2.727c5.872 6.155 5.657 9.457-1.506 23.14-20.363 38.893-24.34 44.608-33.912 48.722-32.292 13.88-62.282 35.647-96.874 70.311-8.537 8.555-20.06 20.738-25.607 27.074-11.879 13.57-16.423 17.747-20.14 18.516-4.268.884-39.412 10.55-42.463 11.68-3.891 1.44-7.356.258-11.744-4.005a725.608 725.608 0 0 0-6.944-6.649l-3.123-2.938-4.428 4.346c-3.002 2.947-4.524 5.34-4.729 7.437-.252 2.583-.403 2.746-.92.985zm4.817-27.515c-1.918-5.022-2.107-7.695-.697-9.876.7-1.084.973-.163.984 3.315.009 2.649.495 5.711 1.08 6.806.586 1.094.9 2.486.697 3.094-.202.607-1.131-.896-2.064-3.34zm.318-13.067c-.008-.93.435-1.97.985-2.31 1.265-.782 1.265.542 0 2.5-.836 1.293-.972 1.267-.985-.19zm1.985-4.691c0-.55.45-1.278 1-1.618.55-.34 1-.168 1 .382s-.45 1.278-1 1.618c-.55.34-1 .168-1-.382zm2-3.492c0-.942 5.275-9.685 5.629-9.33.437.437-4.542 9.704-5.215 9.704-.228 0-.414-.169-.414-.374zm7.116-12.626c3.207-6.833 18.121-23.34 49.327-54.594 13.231-13.252 26.234-25.564 28.896-27.36l4.84-3.265 3.208 3.11c1.764 1.71 3.524 3.109 3.91 3.109 1.433 0 .633-3.176-1.547-6.144l-2.25-3.062 4-3.49c4.925-4.296 9.5-7.622 9.5-6.905 0 .295-2.475 2.404-5.5 4.688-6.03 4.553-6.695 6.579-3.495 10.646 1.53 1.947 1.738 2.87.877 3.908-1.625 1.959-2.526 1.717-6.013-1.616l-3.113-2.975-4.562 3.225c-5.432 3.839-40.105 38.033-56.629 55.847-10.393 11.204-14.433 16.033-20.844 24.913l-1.78 2.465 1.175-2.5zm199.384-33.74c.55-.546 3.475-2.327 6.5-3.959 3.025-1.632 9.01-4.895 13.299-7.252 4.29-2.356 7.964-4.119 8.164-3.917.337.339-25.446 14.895-27.885 15.743-.718.25-.744.044-.078-.616zm30-15.96c1.36-1.351 17.459-7.675 18.046-7.088.257.258-3.247 1.936-7.789 3.728-11.47 4.528-11.414 4.51-10.257 3.36zM155.57 69.72c.072-1.11 22.948-17.938 22.948-16.881 0 .273-4.37 3.777-9.712 7.786-13.535 10.158-13.294 9.993-13.236 9.095zm24.359-18.162c.696-1.128 22.826-16.208 26.589-18.12 1.375-.698 2.05-.836 1.5-.306-1.896 1.827-28.695 19.406-28.09 18.426zm31.589-21.144c1.375-1.076 2.95-1.956 3.5-1.956.55 0-.125.88-1.5 1.956-1.375 1.075-2.95 1.955-3.5 1.955-.55 0 .125-.88 1.5-1.955zm5-2.31c0-.728 16.249-9.775 16.716-9.308.224.225-3.098 2.368-7.382 4.763-8.941 4.998-9.334 5.189-9.334 4.545zm67.415-3.44c-1.552-2.063-5.427-6.4-8.61-9.64l-5.786-5.888-5.76.588c-3.677.376-5.036.27-3.76-.29 1.1-.484 3.935-.911 6.3-.95 3.985-.065 4.72.368 10.044 5.93 3.16 3.3 6.53 6 7.49 6s3.576-.934 5.811-2.074c2.236-1.14 3.818-1.674 3.516-1.186-.302.488-2.584 1.935-5.072 3.214l-4.524 2.327 2.036 2.86c3.004 4.218 1.603 3.478-1.685-.891zm-48.915-7.25c.34-.55 1.068-1 1.618-1s.722.45.382 1c-.34.55-1.068 1-1.618 1s-.722-.45-.382-1zm4.5-2c.825-.534 1.95-.97 2.5-.97s.325.436-.5.97c-.825.533-1.95.969-2.5.969s-.325-.436.5-.97zm5-2c.825-.534 2.175-.945 3-.915.989.036.818.348-.5.915-2.75 1.181-4.328 1.181-2.5 0zm6.5-2c1.1-.473 2.9-.86 4-.86 2 0 2 0 0 .86-1.1.472-2.9.86-4 .86-2 0-2 0 0-.86z" fill="#d42f2f"/></svg>