<svg xmlns="http://www.w3.org/2000/svg" viewBox="0 0 400 400" height="400" width="400"><g fill="#d42f2f"><path d="M137.776 171.635l-2.424-2.75 2.75 2.425c2.57 2.266 3.209 3.075 2.424 3.075-.179 0-1.416-1.237-2.75-2.75z"/><path d="M119.852 361.035c0-5.872 1.452-11.189 3.797-13.9 1.318-1.524 3.487-1.75 16.858-1.75h15.345v-49h79v49h16.3c11.344 0 16.665.365 17.5 1.2.761.762 1.2 4.6 1.2 10.5v9.3h-150v-5.35zm-69.253-88.867c-5.835-1.228-9.375-5.045-10.236-11.037-.335-2.335-.475-49.92-.31-105.746l.299-101.5 2.347-3.774c4.518-7.268-8.157-6.726 157.117-6.726H348.88l3.38 2.216c6.517 4.272 6.067-3.633 6.36 111.596.301 118.44.802 110.402-7.095 113.86-3.974 1.741-11.123 1.835-150.173 1.97-94.081.091-147.69-.214-150.753-.859zm290.696-49.005c1.376-1.965 1.557-11.129 1.557-79 0-75.444-.035-76.812-2-78.778-1.98-1.98-3.312-2-138.75-1.968-112.124.026-137.065.271-138.5 1.36-1.64 1.246-1.75 6.244-1.75 79.919 0 73.793.107 78.652 1.75 79.61 1.165.678 47.617 1.029 138.943 1.049l137.194.03 1.556-2.222zm-175.443-26.847c-4.161-.786-5.931-2.317-23.5-20.329-13.177-13.509-20.187-19.957-22.872-21.04-3.058-1.233-8.053-1.562-23.75-1.562H75.852v-22h16.95c30.205 0 36.448 2.785 56.05 25 4.125 4.675 9.363 10.525 11.64 13 2.276 2.475 5.391 6.007 6.921 7.849l2.782 3.348 1.806-2.348c.994-1.292 1.816-2.607 1.829-2.924.012-.316 2.636-5.266 5.83-11 3.195-5.733 7.53-13.575 9.633-17.425l6.691-12.25 5.736-10.5 6.418-11.75c11.013-20.163 12.055-21.39 19.611-23.088 6.035-1.356 11.777.424 16.103 4.99 2.707 2.858 4.276 6.178 6.924 14.647 6.006 19.212 8.043 22.69 16.576 28.315l4 2.636 26.25.31 26.25.311v16.88l-24.25-.012c-29.608-.015-35.91-1.32-46.912-9.71-8.249-6.29-12.877-14.227-18.97-32.529-1.237-3.712-2.53-6.75-2.874-6.75-.344 0-1.564 1.688-2.71 3.75a3149.48 3149.48 0 0 1-4.325 7.75 2715.37 2715.37 0 0 0-4.738 8.5 1109.44 1109.44 0 0 1-6.222 11c-2.05 3.575-5.202 9.2-7.005 12.5-1.803 3.3-5.837 10.5-8.965 16-3.129 5.5-7.3 12.925-9.272 16.5-4.344 7.88-7.01 10.469-12.257 11.899-2.2.6-4.225 1.043-4.5.986-.275-.057-2.525-.486-5-.954z"/></g></svg>