<svg xmlns="http://www.w3.org/2000/svg" width="400" height="400" viewBox="0 0 400 400"><g fill="#d42f2f"><path d="M321.721 398.539c.973-.254 2.323-.237 3 .037.677.274-.119.481-1.769.461-1.65-.02-2.204-.244-1.23-.498zm19.731-78.685c0-.207.788-.995 1.75-1.75 1.586-1.243 1.622-1.208.378.378-1.306 1.666-2.128 2.195-2.128 1.372zm-246-71c0-.207.788-.995 1.75-1.75 1.586-1.243 1.622-1.208.378.378-1.306 1.666-2.128 2.195-2.128 1.372zm.873-167.372c-1.244-1.586-1.209-1.621.377-.378 1.666 1.307 2.196 2.128 1.373 2.128-.208 0-.995-.787-1.75-1.75zm185.285-30.25c0-1.375.227-1.937.505-1.25.277.688.277 1.813 0 2.5-.278.688-.505.125-.505-1.25zM135.748 25.488c4.288-.188 11.038-.187 15 .002 3.962.19.454.343-7.796.342-8.25-.001-11.492-.156-7.204-.344zm99.454.001c3.988-.19 10.513-.19 14.5 0 3.988.19.725.346-7.25.346s-11.237-.156-7.25-.346zm-44-19.92c.688-.277 1.813-.277 2.5 0 .688.278.125.505-1.25.505s-1.937-.227-1.25-.504z"/><path d="M305.068 395.73c-22.95-7.946-37.616-28.49-37.616-52.689 0-17.236 7.89-33.24 21.417-43.447 10.913-8.233 20.26-11.332 34.238-11.35 24.254-.032 45.93 16.414 53.008 40.218 2.325 7.816 2.016 23.603-.616 31.491-5.81 17.416-19.05 30.62-36.413 36.321-8.87 2.912-24.774 2.658-34.018-.543zm7.668-21.416c2.574-.978 2.99-1.377 29.466-28.222 15.81-16.03 17.25-17.786 17.25-21.04 0-2.061-.857-4.64-2.043-6.148-2.331-2.963-7.773-4.376-10.741-2.787-1.098.587-9.61 8.786-18.915 18.219-13.597 13.783-17.301 17.021-18.86 16.49-1.068-.365-3.614-2.785-5.66-5.379-7.624-9.668-9.44-11.215-13.169-11.215-5.217 0-9.066 3.701-9.066 8.718 0 3.525 1.082 5.227 10.477 16.49 13.056 15.652 15.225 17.17 21.261 14.874zM55.305 394.562c-.906-.24-1.912-1.426-2.236-2.634-.324-1.208-.596-76.489-.603-167.291-.013-158.681.057-165.16 1.815-166.75 1.511-1.368 4.169-1.655 15.309-1.655 15.681 0 16.593.384 18.486 7.784 4.236 16.552 17.299 29.167 33.354 32.212 7.114 1.349 136.93 1.349 144.045 0 13.188-2.501 24.644-11.665 30.542-24.43 1.89-4.09 3.435-8.364 3.435-9.5 0-1.137.9-2.966 2-4.066 1.796-1.796 3.334-2 15.066-2 7.186 0 13.936.466 15 1.035 1.893 1.013 1.934 3.241 1.934 105.378 0 91.15-.188 104.498-1.488 105.577-.906.752-5.498 1.351-11.75 1.533-20.5.596-35.71 7.23-50.282 21.931-8.993 9.073-14.741 18.869-18.51 31.546-1.779 5.98-2.224 9.93-2.2 19.5.032 12.036 1.113 18.216 4.809 27.5 2.233 5.608 9.545 18 10.622 18 1.676 0 .732 4.966-1.135 5.965-1.888 1.01-204.446 1.366-208.213.365zm138.043-61.735c2.963-2.682 2.963-10.508 0-13.19-1.992-1.803-4.488-1.921-46.75-2.213-40.516-.279-44.945-.15-47.878 1.398-5.88 3.103-5.433 11.971.763 15.147 1.906.977 12.659 1.208 47.115 1.014 42.306-.238 44.756-.35 46.75-2.156zm95.09-71.587c2.604-1.394 4.322-7.068 3.107-10.263-2.31-6.075 3.362-5.745-98.86-5.745H99.36l-2.454 2.455c-3.094 3.093-3.26 8.252-.382 11.91l2.072 2.635h93.994c60.265 0 94.658-.356 95.847-.992zm1.123-52.672c2.982-2.983 2.982-9.69 0-12.672l-2.164-2.164-93.534-.265-93.534-.265-2.938 2.938c-2.01 2.009-2.939 3.936-2.939 6.092 0 2.156.93 4.083 2.939 6.092l2.938 2.938 93.534-.265 93.534-.265 2.164-2.164zm-.722-50.656c2.389-1.911 2.886-3.062 2.886-6.679 0-3.504-.533-4.828-2.692-6.685l-2.692-2.316-93.194.032c-71.682.024-93.56.313-94.781 1.25-4.666 3.582-5.104 9.682-.99 13.795l2.922 2.923 92.827-.005 92.827-.005 2.887-2.31zM121.952 76.996c-18.796-6.756-24.68-29.384-11.156-42.908 6.891-6.89 10.476-7.856 29.178-7.856 18.64 0 21.763-.75 25.538-6.137 3.392-4.84 7.696-8.415 13.627-11.321 4.269-2.092 6.634-2.542 13.357-2.542 11.034 0 18.647 3.503 26.008 11.966 2.824 3.247 6.51 6.383 8.19 6.969 1.682.586 10.302 1.07 19.158 1.075 14.754.009 16.519.204 21.108 2.341 5.57 2.595 10.722 7.87 12.994 13.308 1.936 4.632 1.922 15.082-.024 19.741-2.336 5.59-8.412 11.668-14.256 14.26l-5.279 2.34-67.721-.079c-45.71-.053-68.697-.43-70.722-1.157z"/></g></svg>