<svg xmlns="http://www.w3.org/2000/svg" viewBox="0 0 400 400" height="400" width="400"><path d="M155.018 339.826c-3.199-1.064-6.624-2.334-7.611-2.822-2.705-1.337-23.157-29.138-26.532-36.066-2.805-5.757-2.118-5.551-26.632-7.967-24.068-2.372-25.086-2.614-28.727-6.816-1.96-2.263-5.515-8.213-7.201-12.055-1.963-4.472-2.428-9.065-3.069-30.284-.335-11.117-.753-23.631-.93-27.81l-.319-7.598-7.93.187c-7.822.184-7.942.21-8.614 1.871-.423 1.045-1.04 11.396-1.624 27.286-1.217 33.05-1.015 31.38-4.124 33.966-2.97 2.471-3.024 2.477-6.278.645l-2.547-1.434-.376-8.104c-.207-4.457-.377-20.33-.377-35.274v-27.169l-2.873-8.342-2.873-8.343 1.101-24.85c1.522-34.362 1.59-35.15 3.11-36.298 1.604-1.213 14.184-5.452 14.634-4.93.187.217.609 13.996.936 30.62l.594 30.225 1.652 1.793c1.28 1.391 2.478 1.895 5.335 2.245 2.026.249 4.715.352 5.976.228 2.002-.195 2.346-.48 2.712-2.245.23-1.111.995-11.116 1.698-22.233l1.278-20.212 1.825-3.362c2.446-4.505 4.7-7.412 7.055-9.098 1.081-.774 6.5-2.587 12.173-4.072 12.37-3.238 14.905-4.2 16.038-6.091.48-.8 2.212-4.319 3.85-7.82 3.268-6.986 5.177-8.974 15.924-16.585l4.943-3.501 20.646-.337 20.646-.337.17-4.814.17-4.814-3.95-1.728c-3.824-1.672-4.582-1.748-23.65-2.353-13.002-.412-19.83-.874-20.089-1.357-.215-.403-.883-3.023-1.484-5.821-1.037-4.825-1.044-5.27-.12-8.607.536-1.935 1.226-3.974 1.534-4.53.493-.889 9.093-1.01 71.625-1.01h71.065l1.363 4.679c1.665 5.719 1.684 7.11.176 12.767l-1.187 4.45h-40.733l-2.582 2.5c-2.491 2.413-2.583 2.635-2.583 6.273 0 2.074.337 4.305.75 4.957 1.109 1.758 6.61 2.272 29.492 2.752 19.138.403 20.183.49 22.628 1.908l2.564 1.485 6.222 18.038c3.422 9.921 6.325 18.15 6.45 18.284.127.136 2.192 1.606 4.591 3.267l4.362 3.02 10.102 1.103c10.935 1.195 13.563 2.102 14.52 5.012.326.993 1.024 6.188 1.55 11.544.527 5.356 1.21 10.283 1.517 10.948.453.982 1.304 1.21 4.516 1.21 3.693 0 4.003-.117 4.643-1.744.381-.97.85-6.783 1.056-13.09l.37-11.346 4.126-.368c2.27-.202 11.585-.45 20.701-.553l16.575-.185 2.617 6.12c1.44 3.367 5.28 13.675 8.533 22.908l5.915 16.786 1.543 21.264 1.543 21.264-2.13 25.774-2.13 25.775-6.283 17.64c-3.455 9.7-6.618 18.483-7.03 19.515-.783 1.965-5.235 5.439-10.164 7.932-2.683 1.357-4.095 1.482-20.433 1.815l-17.551.357-.35-2.285c-.193-1.256-.586-6.529-.874-11.717l-.522-9.432-2.222-2.18c-2.745-2.692-4.59-2.763-7.16-.277l-1.988 1.921-.39 11.722c-.55 16.49-.965 17.62-8.716 23.68l-5.816 4.547-65.263-.04-65.262-.042-5.816-1.935zm-52.49-90.596c5.814-1.428 10.95-4.523 13.977-8.423 3.269-4.211 5.754-10.22 5.862-14.171l.083-3.032h-12.085l-.69 2.709c-1.038 4.068-2.363 6-5.458 7.95-3.44 2.17-8.185 2.905-11.719 1.817-3.811-1.175-8.323-6.713-9.713-11.923-1.434-5.376-1.414-17.211.037-22.747 2.762-10.53 9.213-14.898 18.388-12.449 3.654.976 6.307 3.567 7.976 7.79.785 1.985 1.604 3.633 1.82 3.662 3.488.469 8.38.604 9.92.274l1.967-.421-.334-3.269c-.908-8.881-8.733-18.039-17.857-20.898-3.794-1.189-12.65-1.004-16.663.348-4.819 1.623-6.42 2.727-10.435 7.193-6.132 6.82-8.956 15.922-8.942 28.82.015 13.16 2.662 21.985 8.688 28.966 6.652 7.706 15.016 10.298 25.178 7.804zm180.972-1.013c4.986-1.993 7.936-4.197 11.269-8.422 3.118-3.953 5.438-9.714 5.568-13.833l.075-2.358-6.178-.19-6.178-.19-.651 2.995c-1.303 5.993-5.24 9.372-11.88 10.195-5.127.637-8.263-.676-11.363-4.756-3.251-4.279-4.75-10.077-4.75-18.37 0-10.659 2.313-18.202 6.799-22.169 1.908-1.687 2.668-1.899 7.58-2.11 3.417-.147 6.096.071 7.164.584 2.221 1.066 5.468 5.26 6.412 8.284.436 1.396 1.247 2.544 1.952 2.763 1.92.597 9.849.433 10.743-.223 2.128-1.56-1.596-11.963-6.017-16.807-3.418-3.745-6.193-5.562-10.807-7.078-13.741-4.513-26.788 1.334-32.935 14.76-3.305 7.218-3.826 10.562-3.599 23.113l.203 11.22 2.451 5.91c3.946 9.514 10.575 16.242 17.749 18.012 3.818.943 12.463.241 16.393-1.33zm-138.935-3.641c.211-1.954.329-4.137.262-4.851-.066-.715-.09-6.226-.054-12.247l.067-10.948h11.341c10.406 0 11.342.097 11.358 1.179.162 11.033.69 29.002.872 29.644.17.602 1.965.842 6.305.842h6.067l.402-7.58c.664-12.537.122-62.958-.687-63.895-.834-.966-11.076-1.063-11.896-.113-.303.35-.711 6.445-.907 13.543l-.355 12.905h-22.5l-.048-10.611c-.045-10.02-.232-13.54-.824-15.496-.182-.602-2.003-.842-6.38-.842h-6.124v35.651c0 27.898.158 35.723.727 35.978.4.18 3.261.342 6.359.36l5.632.033.383-3.552zm94.948-2.867l.166-6.148-16.596-.497-16.596-.497v-16.69h10.09c5.55 0 12.093-.196 14.54-.436l4.45-.435v-11.93l-4.508-.072c-2.479-.04-5.423-.16-6.543-.265-1.12-.105-5.634-.224-10.032-.264l-7.997-.072V189.58l10.033-.003c5.517-.002 12.584-.2 15.702-.439l5.67-.435v-5.542c0-4.104-.226-5.76-.871-6.381-1.277-1.228-42.41-1.334-43.464-.112-.575.665-.737 8.456-.737 35.54 0 30.096.116 34.774.873 35.339.532.397 9.595.584 23.263.48l22.39-.17.167-6.148zm83.014 5.554c.115-.414.319-5.688.452-11.72l.244-10.968 2.295-3.137c1.263-1.726 2.574-3.245 2.914-3.376.34-.132 4.681 6.077 9.648 13.796 4.966 7.72 9.489 14.478 10.05 15.018 1.1 1.059 13.318 1.708 14.618.777.746-.534-1.49-4.232-15.961-26.387-5.853-8.962-8.725-13.893-8.433-14.484.243-.492 4.554-6.175 9.58-12.628 9.785-12.566 12.671-16.544 12.671-17.467 0-.32-3.205-.577-7.124-.573l-7.124.008-11.244 14.533c-6.184 7.994-11.418 14.331-11.631 14.084-.214-.247-.519-6.715-.679-14.373l-.29-13.924-6.544-.19-6.542-.19.009 34.887c.004 19.188.201 35.221.436 35.629.74 1.282 2.026 1.544 7.309 1.49 3.233-.033 5.214-.332 5.346-.805z" fill="#d42f2f"/></svg>