<svg xmlns="http://www.w3.org/2000/svg" viewBox="0 0 400 400" height="400" width="400"><path d="M119.688 328.08c-4.135-.758-8.053-2.371-11.802-4.86-7.505-4.984-18.495-15.927-22.423-22.33l-3.185-5.192-6.7 6.752c-3.685 3.713-8.5 7.594-10.7 8.624-16.499 7.728-36.005-.364-49.395-20.491C8.77 280.49 7.378 276.01 7.378 264.47c0-13.891 4.612-23.374 13.554-27.87 1.62-.814 4.521-2.444 6.446-3.622 3.554-2.174 24.016-14.25 29.5-17.41 13.932-8.028 21.17-12.311 22.107-13.082.608-.501 1.402-4.46 1.764-8.8 1.122-13.45 4.46-20.977 13.133-29.604 5.18-5.152 8.786-7.38 25.514-15.768 28.62-14.349 74.731-38.446 96.482-50.42 3.3-1.816 8.434-4.542 11.409-6.057 2.975-1.515 8.431-5.514 12.125-8.886 6.839-6.244 13.333-9.48 22.952-11.436 19.238-3.911 22.24-4.224 41.514-4.327 19.014-.1 23.342.294 39 3.56 24.882 5.188 41.493 17.784 47.918 36.334 8.324 24.036 2.7 42.141-18.205 58.611-9.462 7.454-24.126 19.789-27.213 22.889-.275.276-3.875 3.426-8 7s-7.725 6.724-8 7c-.275.276-3.875 3.426-8 7s-7.725 6.726-8 7.005c-.275.279-7.025 6.124-15 12.988-7.975 6.865-16.139 13.977-18.142 15.805-2.004 1.828-4.29 3.86-5.082 4.513-.791.654-3.147 3.578-5.235 6.497-4.457 6.232-13.913 14.161-21.056 17.655-9.81 4.8-13.201 5.534-25.86 5.599-6.669.034-15.333.384-19.253.777-6.472.65-7.637 1.128-12.641 5.189-3.032 2.46-11.033 8.747-17.781 13.972-6.748 5.225-15.183 12.275-18.746 15.666-11.608 11.048-22.59 15.087-34.894 12.831zm20.253-6.631c8.437-3.966 11.959-11.194 11.89-24.4-.05-9.688-2.089-16.57-7.422-25.046-9.765-15.52-25.468-24.269-37.813-21.067-6.525 1.693-9.678 3.813-12.527 8.422-4.811 7.786-5.858 16.64-3.183 26.926 6.76 25.996 31.235 43.54 49.055 35.165zm-79.453-13.405c11.328-3.997 16.563-16.079 13.463-31.071-2.578-12.462-7.098-20.801-15.897-29.33-9.309-9.02-21.879-13.128-30.982-10.124-12.273 4.05-17.164 20.616-11.25 38.098 5.392 15.936 16.95 28.047 31.002 32.487 5.554 1.755 8.557 1.742 13.664-.06zm119.89-26.842c12.375-9.892 22.725-18.255 23-18.584.275-.33 7.162-5.947 15.304-12.484 8.143-6.537 15.23-12.68 15.75-13.652 1.298-2.425 1.197-13.626-.13-14.446-.592-.366-2.73.654-4.75 2.266-2.02 1.611-8.624 6.714-14.674 11.34-6.05 4.624-11.675 8.96-12.5 9.635-4.749 3.886-44.674 34.702-46.563 35.94-1.958 1.282-2.14 1.913-1.35 4.668.502 1.751.913 5.802.913 9 0 4.39.307 5.63 1.25 5.06.688-.416 11.375-8.85 23.75-18.743zM87.266 242.28c9.687-6.217 28.51-18.255 41.828-26.75 21.27-13.568 26.953-17.946 23.29-17.946-.546 0-8.308 4.649-17.25 10.33a27069.491 27069.491 0 0 1-41.256 26.138c-13.75 8.693-25.557 16.246-26.239 16.783-1.354 1.067-.782 2.749.936 2.749.594 0 9.005-5.087 18.691-11.304zm-17.852 8.951c1.297-1.197 78.182-50.101 81.964-52.134 5.463-2.937-3.716 3.258-24.5 16.534-13.2 8.432-31.57 20.195-40.822 26.142-15.942 10.245-19.976 12.538-16.642 9.458zm170.762-5.678c6.432-6.562 9.202-13.443 9.202-22.86 0-7.445-.406-9.4-3.344-16.11-3.003-6.857-11.078-16.947-16.958-21.188-4.316-3.114-12.656-5.811-17.965-5.811-5.488 0-15.254 3.025-20.283 6.282-3.6 2.332-4.683 4.405-1.702 3.261 8.677-3.33 22.43-3.09 28.845.503 6.987 3.913 9.14 5.849 14.411 12.96 6.002 8.095 8.996 15.198 8.996 21.34 0 6.788-4.34 18.571-9.62 26.126-3.778 5.403 1.447 2.608 8.418-4.503zm42.646-17.72c8.592-8.08 13.466-12.413 26.056-23.16a5765.077 5765.077 0 0 0 14.706-12.586c2.038-1.758 17.65-14.822 34.694-29.032 30.397-25.342 31.01-25.926 32.137-30.624 1.203-5.013.482-12.847-1.182-12.847-.806 0-32.29 23.234-33.855 24.984-.275.307-6.575 5.162-14 10.787a4293.958 4293.958 0 0 0-21.5 16.392 5405.42 5405.42 0 0 1-15.975 12.25c-4.386 3.348-8.66 6.636-9.5 7.308-.839.671-5.8 4.53-11.025 8.573-8.56 6.625-9.47 7.643-9.197 10.28.167 1.609.546 7.538.841 13.176.296 5.637.796 10.25 1.112 10.25.316 0 3.325-2.588 6.688-5.75zM170.628 199.1c1.513-1.33 2.75-3.057 2.75-3.836 0-.78-2.23-4.288-4.954-7.798-5.167-6.657-12.576-12.379-18.862-14.569-5.803-2.021-16.245-1.636-22.896.846-9.45 3.526-18.253 10.261-10.038 7.68 16.06-5.045 29.23-2.556 39.557 7.477 2.368 2.301 5.518 6.096 7 8.432 1.481 2.337 3.143 4.235 3.693 4.219.55-.017 2.238-1.12 3.75-2.45zm106.25-28.023c8.8-6.646 35.035-26.391 58.3-43.877 35.451-26.647 42.102-32.029 41.089-33.25-.665-.801-1.73-1.257-2.365-1.013-1.02.39-27.69 20.391-94.876 71.149-10.919 8.249-20.305 15.28-20.857 15.623-.553.344-.7 1.588-.326 2.765.822 2.59-.644 3.468 19.035-11.397zm-17.881 10.699c-.308-.499 15.964-13.343 36.16-28.544a49867.343 49867.343 0 0 0 58.037-43.745c11.723-8.858 21.598-15.822 21.944-15.477.346.346-.246 1.463-1.315 2.482-1.07 1.02-26.695 20.43-56.945 43.136a121214.94 121214.94 0 0 0-56.16 42.168c-.677.516-1.395.507-1.721-.02z" fill="#d42f2f"/></svg>