<svg xmlns="http://www.w3.org/2000/svg" viewBox="0 0 400 400.00001" width="400" height="400"><path d="M363.008 323.446c-1.773-1.24-6.772-6.59-8.185-12.187-3.385-13.41-5.548-23.83 4.043-59.445 4.496-16.696 8.955-33.369 9.909-37.052l1.734-6.698 2.61 10.716c1.437 5.894 5.722 22.012 9.523 35.818 8.456 30.713 7.574 46.45 5.801 52.961-4.441 16.319-15.316 22.97-25.435 15.888zM82.343 319.16l-.17-93.904c-.74-4.77-1.414-4.887-33.607-23.918-3.315-1.96-28.738-18.58-29.582-19.57-4.864-5.7-5.847-8.697-5.847-15.207 0-6.017 12.513-58.713 16.384-68.993 1.61-4.28 3.987-8.137 7.48-6.028 3.17 1.914 56.88 34.947 62.811 38.791 2.057 1.333 3.174 8.429 3.434 13.063l.473 8.427h35.614v-16.075l-11.07-1.34c-12.514-1.514-17.576-6.9-17.576-18.702 0-4.015 1.573-9.711 3.584-12.98 3.45-5.608 4.825-5.825 36.892-5.825 32.814 0 33.358.092 36.676 6.2 1.852 3.41 3.367 9.252 3.367 12.98 0 11.43-5.176 16.827-17.576 18.327l-11.07 1.34v16.074l18.123.753 18.123.754 8.649 13.677 8.649 13.677c1.758-.687 132.178-58.1 133.543-58.689.189.07 8.778 13.649 14.594 23.664 7.696 13.254 12.128 24.698 6.581 34.296-5.287 9.148-11.54 6.944-20.238-7.132l-7.717-12.49-13.441 6.475-13.442 6.474c-1.922 3.067-71.406 139.449-75.278 145.989h-75.504zm171.455-79.126l24.962-49.588-35.683 16.301-31.954 13.396-21.023-29.556-87.357-.266-.09 91.702 65.934-.26h64.19zm-172.26-64.782c.354-2.578.262-8.151-.207-12.383-.774-7.005-2.309-8.624-17.11-18.052-8.942-5.697-17.393-10.372-18.78-10.39-2.7-.034-6.942 13.706-5.661 19.112.987 4.167 34.946 25.907 39.357 26.261.965.078 2.045-1.969 2.4-4.547z" fill="#d42f2f"/></svg>