<svg xmlns:osb="http://www.openswatchbook.org/uri/2009/osb" xmlns="http://www.w3.org/2000/svg" xmlns:xlink="http://www.w3.org/1999/xlink" viewBox="0 0 114 114" height="114" width="114"><defs><linearGradient osb:paint="solid" id="a"><stop offset="0" stop-color="#00f0ff" stop-opacity=".596"/></linearGradient><linearGradient gradientTransform="matrix(1.14852 0 0 1.16584 -.466 -.674)" gradientUnits="userSpaceOnUse" y2="49.287" x2="99.316" y1="49.287" x1=".416" id="b" xlink:href="#a"/></defs><path d="M45.648 112.286c-44.222-9.35-60.305-64.024-28.236-95.988C35.19-1.422 64.899-5.067 85.382 7.957c3.815 2.425 1.488 2.362-3.302-.09C29-19.302-23.143 45.866 14.71 92.068c32.235 39.344 96.95 15.81 96.95-35.257 0-6.045 1.123-6.128 1.334-.098 1.21 34.446-33.154 62.803-67.346 55.574zm8.58-1.762c-41.774-2.223-65.06-49.43-41.567-84.265 15.617-23.157 48.29-30.26 71.777-15.606 3.296 2.057.849 2.101-2.87.053C36.942-13.878-13.02 35.852 10.737 81.208c25.098 47.915 98.037 29.577 98.062-24.655.001-3.409.136-4.196.717-4.196 1.637 0 .442 14.31-1.74 20.843-6.759 20.23-25.506 35.564-45.207 36.973-1.967.141-4.111.306-4.767.367-.655.061-2.264.054-3.574-.016zm-2.505-3.048C-9.804 101.424-7.418 8.749 54.336 5.988c10.921-.489 29.68 4.726 29.68 8.25 0 .97-.295.912-2.738-.528C41.175-9.936-6.41 32.417 11.412 75.894c20.16 49.181 94.53 34.396 94.53-18.794 0-4.047.112-4.743.77-4.743 1.26 0 .67 11.338-.902 17.321-6.372 24.26-29.24 40.242-54.087 37.798zm-.638-2.84C-8.825 97.125-1.888 6.804 58.44 8.843c8.704.294 24.146 5.052 24.146 7.44 0 1.027-.77.844-4.675-1.115C38.061-4.819-4.478 37.252 15.087 77.301c21.438 43.883 87.995 28.612 87.995-20.19 0-3.906.127-4.754.715-4.754.888 0 1.007 7.496.196 12.43-4.117 25.052-27.924 42.983-52.908 39.85zm-.67-2.933C26.52 98.27 9.175 75.679 11.995 51.66 15.718 19.933 49.75 1.823 77.79 16.65c5.52 2.918 3.814 3.485-2.033.674C31.738-3.834-8.138 52.2 25.814 87.503c23.2 24.124 67.339 12.122 73.229-19.912l.329-1.79-12.047-.128c-9.122-.097-12.095-.274-12.245-.727-.156-.47 2.49-.6 12.182-.6 10.505 0 12.422-.108 12.653-.711.234-.616-1.405-.729-12.183-.84-9.447-.096-12.502-.272-12.652-.727-.156-.47 2.547-.6 12.472-.6 10.881 0 12.67-.1 12.67-.71 0-.608-1.827-.73-12.511-.84-18.415-.188-18.694-1.504-.358-1.688 16.276-.163 16.685-.78.715-1.077-18.856-.351-19.106-1.615-.357-1.806 7.649-.079 12.51-.308 12.51-.592 0-.283-4.861-.513-12.51-.591-19.065-.195-18.55-1.508.664-1.694l13.175-.128.218 2.046c2.856 26.815-23.704 51.286-51.353 47.315zM38.26 59.31c0-28.027.086-31.89.715-31.89.628 0 .715 3.863.715 31.89s-.087 31.89-.715 31.89c-.629 0-.715-3.863-.715-31.89zm2.86.035c0-30.085.047-31.925.834-31.925 1.295 0 1.295 63.438 0 63.689-.788.152-.835-1.617-.835-31.764zm3.183 31.515c-.908-1.478-.294-63.44.629-63.44.96 0 .963.159.84 31.73-.12 30.632-.261 33.676-1.469 31.71zm3.013-31.55c0-28.027.086-31.89.714-31.89.629 0 .715 3.863.715 31.89s-.086 31.89-.715 31.89c-.628 0-.714-3.863-.714-31.89zm2.86.008V27.42h12.55c10.84 0 12.552.098 12.552.72 0 .62-1.633.718-11.837.718-10.203 0-11.836.1-11.836.72s1.633.72 11.836.72c10.204 0 11.837.098 11.837.718s-1.633.72-11.837.72c-10.14 0-11.836.102-11.836.71 0 .606 1.743.73 11.757.84 8.89.097 11.806.274 11.956.728.155.469-2.405.6-11.757.6-10.31 0-11.956.098-11.956.718s1.61.72 11.627.72c9.894 0 11.667.107 11.9.719.24.628-1.244.72-11.626.72-10.26 0-11.9.098-11.9.719 0 .62 1.614.719 11.676.719 10.063 0 11.678.1 11.678.72s-1.615.719-11.678.719H51.606v11.988h8.818c7.52 0 8.817.106 8.817.72 0 .613-1.297.719-8.817.719-7.46 0-8.818.11-8.818.709 0 .594 1.402.73 8.699.839 7.356.11 8.698.241 8.698.85 0 .608-1.342.74-8.698.85-7.297.11-8.699.245-8.699.839 0 .6 1.358.709 8.818.709 7.52 0 8.817.105 8.817.719 0 .613-1.297.72-8.817.72-7.52 0-8.818.105-8.818.719 0 .613 1.298.719 8.818.719s8.817.106 8.817.72c0 .613-1.297.718-8.817.718-7.52 0-8.818.106-8.818.72 0 .613 1.298.72 8.818.72s8.817.105 8.817.718c0 .614-1.297.72-8.817.72h-8.818v11.972l11.757.128c8.89.097 11.806.274 11.956.728.155.469-2.405.6-11.757.6-10.247 0-11.956.1-11.956.71 0 .606 1.734.73 11.678.84 15.757.172 15.757 1.042 0 1.215-9.944.11-11.678.234-11.678.84 0 .608 1.667.71 11.598.71 11.792 0 12.364.06 11.911 1.246-.21.551-2.354.672-11.922.672-9.121 0-11.623.131-11.468.6.15.452 3.018.63 11.717.728 9.802.109 11.519.234 11.519.839 0 .608-1.678.71-11.678.71s-11.677.103-11.677.712c0 .605 1.734.73 11.678.839 16.242.178 15.816 1.047-.596 1.215l-12.512.128V59.319z" stroke="url(#b)" stroke-width="1.157"/></svg>